<mxfile host="Electron" agent="Mozilla/5.0 (Windows NT 10.0; Win64; x64) AppleWebKit/537.36 (KHTML, like Gecko) draw.io/24.7.8 Chrome/128.0.6613.36 Electron/32.0.1 Safari/537.36" version="24.7.8">
  <diagram name="Page-1" id="6QyYKDkwgsWiwxXBSIDZ">
    <mxGraphModel dx="1587" dy="2070" grid="1" gridSize="10" guides="1" tooltips="1" connect="1" arrows="1" fold="1" page="1" pageScale="1" pageWidth="827" pageHeight="1169" math="0" shadow="0">
      <root>
        <mxCell id="0" />
        <mxCell id="1" parent="0" />
        <mxCell id="Lc5PZ5OLvWeDF66VV4uw-1" value="&lt;h1 style=&quot;margin-top: 0px;&quot;&gt;&lt;div style=&quot;-webkit-user-drag: none; -webkit-tap-highlight-color: transparent; margin: 0px; padding: 0px; user-select: text; clear: both; cursor: text; overflow: visible; position: relative; direction: ltr; font-family: &amp;quot;Segoe UI&amp;quot;, &amp;quot;Segoe UI Web&amp;quot;, Arial, Verdana, sans-serif; font-size: 12px; font-weight: 400; background-color: rgb(255, 255, 255);&quot; class=&quot;OutlineElement Ltr SCXW186897226 BCX0&quot;&gt;&lt;p style=&quot;-webkit-user-drag: none; -webkit-tap-highlight-color: transparent; margin: 0px 0px 10.6667px; padding: 0px; user-select: text; overflow-wrap: break-word; white-space-collapse: preserve; vertical-align: baseline; font-kerning: none; background-color: transparent; color: windowtext;&quot; lang=&quot;FR-FR&quot; class=&quot;Paragraph SCXW186897226 BCX0&quot;&gt;&lt;span style=&quot;-webkit-user-drag: none; -webkit-tap-highlight-color: transparent; margin: 0px; padding: 0px; user-select: text; font-variant-ligatures: none !important; font-size: 12pt; line-height: 20.925px; font-family: Aptos, Aptos_EmbeddedFont, Aptos_MSFontService, sans-serif; font-weight: bold;&quot; class=&quot;TextRun SCXW186897226 BCX0&quot; lang=&quot;FR-FR&quot; data-contrast=&quot;auto&quot;&gt;4. Le système d’information d’une université &lt;/span&gt;&lt;span style=&quot;-webkit-user-drag: none; -webkit-tap-highlight-color: transparent; margin: 0px; padding: 0px; user-select: text; font-size: 12pt; line-height: 20.925px; font-family: Aptos, Aptos_EmbeddedFont, Aptos_MSFontService, sans-serif;&quot; data-ccp-props=&quot;{&amp;quot;201341983&amp;quot;:0,&amp;quot;335559739&amp;quot;:160,&amp;quot;335559740&amp;quot;:279}&quot; class=&quot;EOP SCXW186897226 BCX0&quot;&gt;&amp;nbsp;&lt;/span&gt;&lt;/p&gt;&lt;/div&gt;&lt;div style=&quot;-webkit-user-drag: none; -webkit-tap-highlight-color: transparent; margin: 0px; padding: 0px; user-select: text; clear: both; cursor: text; overflow: visible; position: relative; direction: ltr; font-family: &amp;quot;Segoe UI&amp;quot;, &amp;quot;Segoe UI Web&amp;quot;, Arial, Verdana, sans-serif; font-size: 12px; font-weight: 400; background-color: rgb(255, 255, 255);&quot; class=&quot;OutlineElement Ltr SCXW186897226 BCX0&quot;&gt;&lt;p style=&quot;-webkit-user-drag: none; -webkit-tap-highlight-color: transparent; margin: 0px 0px 10.6667px; padding: 0px; user-select: text; overflow-wrap: break-word; white-space-collapse: preserve; vertical-align: baseline; font-kerning: none; background-color: transparent; color: windowtext;&quot; lang=&quot;FR-FR&quot; class=&quot;Paragraph SCXW186897226 BCX0&quot;&gt;&lt;span style=&quot;-webkit-user-drag: none; -webkit-tap-highlight-color: transparent; margin: 0px; padding: 0px; user-select: text; font-variant-ligatures: none !important; font-size: 12pt; line-height: 20.925px; font-family: Aptos, Aptos_EmbeddedFont, Aptos_MSFontService, sans-serif;&quot; class=&quot;TextRun SCXW186897226 BCX0&quot; lang=&quot;FR-FR&quot; data-contrast=&quot;auto&quot;&gt;Le système informatique d&#39;une université utilise les données suivantes : &lt;/span&gt;&lt;span style=&quot;-webkit-user-drag: none; -webkit-tap-highlight-color: transparent; margin: 0px; padding: 0px; user-select: text; font-size: 12pt; line-height: 20.925px; font-family: Aptos, Aptos_EmbeddedFont, Aptos_MSFontService, sans-serif;&quot; data-ccp-props=&quot;{&amp;quot;201341983&amp;quot;:0,&amp;quot;335559739&amp;quot;:160,&amp;quot;335559740&amp;quot;:279}&quot; class=&quot;EOP SCXW186897226 BCX0&quot;&gt;&amp;nbsp;&lt;/span&gt;&lt;/p&gt;&lt;/div&gt;&lt;div style=&quot;-webkit-user-drag: none; -webkit-tap-highlight-color: transparent; margin: 0px; padding: 0px; user-select: text; clear: both; cursor: text; overflow: visible; position: relative; direction: ltr; font-family: &amp;quot;Segoe UI&amp;quot;, &amp;quot;Segoe UI Web&amp;quot;, Arial, Verdana, sans-serif; font-size: 12px; font-weight: 400; background-color: rgb(255, 255, 255);&quot; class=&quot;OutlineElement Ltr SCXW186897226 BCX0&quot;&gt;&lt;p style=&quot;-webkit-user-drag: none; -webkit-tap-highlight-color: transparent; margin: 0px 0px 10.6667px; padding: 0px; user-select: text; overflow-wrap: break-word; white-space-collapse: preserve; vertical-align: baseline; font-kerning: none; background-color: transparent; color: windowtext;&quot; lang=&quot;FR-FR&quot; class=&quot;Paragraph SCXW186897226 BCX0&quot;&gt;&lt;span style=&quot;-webkit-user-drag: none; -webkit-tap-highlight-color: transparent; margin: 0px; padding: 0px; user-select: text; font-variant-ligatures: none !important; font-size: 12pt; line-height: 20.925px; font-family: Aptos, Aptos_EmbeddedFont, Aptos_MSFontService, sans-serif;&quot; class=&quot;TextRun SCXW186897226 BCX0&quot; lang=&quot;FR-FR&quot; data-contrast=&quot;auto&quot;&gt;- Pour chaque &lt;/span&gt;&lt;span style=&quot;-webkit-user-drag: none; -webkit-tap-highlight-color: transparent; margin: 0px; padding: 0px; user-select: text; outline: transparent solid 1px; font-variant-ligatures: none !important; background-color: rgb(0, 0, 255); font-size: 12pt; line-height: 20.925px; font-family: Aptos, Aptos_EmbeddedFont, Aptos_MSFontService, sans-serif;&quot; class=&quot;TextRun Highlight SCXW186897226 BCX0&quot; lang=&quot;FR-FR&quot; data-contrast=&quot;auto&quot;&gt;&lt;span style=&quot;-webkit-user-drag: none; -webkit-tap-highlight-color: transparent; margin: 0px; padding: 0px; user-select: text;&quot; class=&quot;NormalTextRun SCXW186897226 BCX0&quot;&gt;étudiant&lt;/span&gt;&lt;/span&gt;&lt;span style=&quot;-webkit-user-drag: none; -webkit-tap-highlight-color: transparent; margin: 0px; padding: 0px; user-select: text; font-variant-ligatures: none !important; font-size: 12pt; line-height: 20.925px; font-family: Aptos, Aptos_EmbeddedFont, Aptos_MSFontService, sans-serif;&quot; class=&quot;TextRun SCXW186897226 BCX0&quot; lang=&quot;FR-FR&quot; data-contrast=&quot;auto&quot;&gt; : son numéro de &lt;/span&gt;&lt;span style=&quot;-webkit-user-drag: none; -webkit-tap-highlight-color: transparent; margin: 0px; padding: 0px; user-select: text; font-variant-ligatures: none !important; color: rgb(15, 158, 213); font-size: 12pt; line-height: 20.925px; font-family: Aptos, Aptos_EmbeddedFont, Aptos_MSFontService, sans-serif;&quot; class=&quot;TextRun SCXW186897226 BCX0&quot; lang=&quot;FR-FR&quot; data-contrast=&quot;none&quot;&gt;matricule&lt;/span&gt;&lt;span style=&quot;-webkit-user-drag: none; -webkit-tap-highlight-color: transparent; margin: 0px; padding: 0px; user-select: text; font-variant-ligatures: none !important; font-size: 12pt; line-height: 20.925px; font-family: Aptos, Aptos_EmbeddedFont, Aptos_MSFontService, sans-serif;&quot; class=&quot;TextRun SCXW186897226 BCX0&quot; lang=&quot;FR-FR&quot; data-contrast=&quot;auto&quot;&gt;, son &lt;/span&gt;&lt;span style=&quot;-webkit-user-drag: none; -webkit-tap-highlight-color: transparent; margin: 0px; padding: 0px; user-select: text; font-variant-ligatures: none !important; color: rgb(15, 158, 213); font-size: 12pt; line-height: 20.925px; font-family: Aptos, Aptos_EmbeddedFont, Aptos_MSFontService, sans-serif;&quot; class=&quot;TextRun SCXW186897226 BCX0&quot; lang=&quot;FR-FR&quot; data-contrast=&quot;none&quot;&gt;nom&lt;/span&gt;&lt;span style=&quot;-webkit-user-drag: none; -webkit-tap-highlight-color: transparent; margin: 0px; padding: 0px; user-select: text; font-variant-ligatures: none !important; font-size: 12pt; line-height: 20.925px; font-family: Aptos, Aptos_EmbeddedFont, Aptos_MSFontService, sans-serif;&quot; class=&quot;TextRun SCXW186897226 BCX0&quot; lang=&quot;FR-FR&quot; data-contrast=&quot;auto&quot;&gt;, son &lt;/span&gt;&lt;span style=&quot;-webkit-user-drag: none; -webkit-tap-highlight-color: transparent; margin: 0px; padding: 0px; user-select: text; font-variant-ligatures: none !important; color: rgb(15, 158, 213); font-size: 12pt; line-height: 20.925px; font-family: Aptos, Aptos_EmbeddedFont, Aptos_MSFontService, sans-serif;&quot; class=&quot;TextRun SCXW186897226 BCX0&quot; lang=&quot;FR-FR&quot; data-contrast=&quot;none&quot;&gt;prénom&lt;/span&gt;&lt;span style=&quot;-webkit-user-drag: none; -webkit-tap-highlight-color: transparent; margin: 0px; padding: 0px; user-select: text; font-variant-ligatures: none !important; font-size: 12pt; line-height: 20.925px; font-family: Aptos, Aptos_EmbeddedFont, Aptos_MSFontService, sans-serif;&quot; class=&quot;TextRun SCXW186897226 BCX0&quot; lang=&quot;FR-FR&quot; data-contrast=&quot;auto&quot;&gt; et son &lt;/span&gt;&lt;span style=&quot;-webkit-user-drag: none; -webkit-tap-highlight-color: transparent; margin: 0px; padding: 0px; user-select: text; font-variant-ligatures: none !important; color: rgb(15, 158, 213); font-size: 12pt; line-height: 20.925px; font-family: Aptos, Aptos_EmbeddedFont, Aptos_MSFontService, sans-serif;&quot; class=&quot;TextRun SCXW186897226 BCX0&quot; lang=&quot;FR-FR&quot; data-contrast=&quot;none&quot;&gt;adresse (rue, numéro, CP, ville)&lt;/span&gt;&lt;span style=&quot;-webkit-user-drag: none; -webkit-tap-highlight-color: transparent; margin: 0px; padding: 0px; user-select: text; font-variant-ligatures: none !important; font-size: 12pt; line-height: 20.925px; font-family: Aptos, Aptos_EmbeddedFont, Aptos_MSFontService, sans-serif;&quot; class=&quot;TextRun SCXW186897226 BCX0&quot; lang=&quot;FR-FR&quot; data-contrast=&quot;auto&quot;&gt;. &lt;/span&gt;&lt;span style=&quot;-webkit-user-drag: none; -webkit-tap-highlight-color: transparent; margin: 0px; padding: 0px; user-select: text; font-size: 12pt; line-height: 20.925px; font-family: Aptos, Aptos_EmbeddedFont, Aptos_MSFontService, sans-serif;&quot; data-ccp-props=&quot;{&amp;quot;201341983&amp;quot;:0,&amp;quot;335559739&amp;quot;:160,&amp;quot;335559740&amp;quot;:279}&quot; class=&quot;EOP SCXW186897226 BCX0&quot;&gt;&amp;nbsp;&lt;/span&gt;&lt;/p&gt;&lt;/div&gt;&lt;div style=&quot;-webkit-user-drag: none; -webkit-tap-highlight-color: transparent; margin: 0px; padding: 0px; user-select: text; clear: both; cursor: text; overflow: visible; position: relative; direction: ltr; font-family: &amp;quot;Segoe UI&amp;quot;, &amp;quot;Segoe UI Web&amp;quot;, Arial, Verdana, sans-serif; font-size: 12px; font-weight: 400; background-color: rgb(255, 255, 255);&quot; class=&quot;OutlineElement Ltr SCXW186897226 BCX0&quot;&gt;&lt;p style=&quot;-webkit-user-drag: none; -webkit-tap-highlight-color: transparent; margin: 0px 0px 10.6667px; padding: 0px; user-select: text; overflow-wrap: break-word; white-space-collapse: preserve; vertical-align: baseline; font-kerning: none; background-color: transparent; color: windowtext;&quot; lang=&quot;FR-FR&quot; class=&quot;Paragraph SCXW186897226 BCX0&quot;&gt;&lt;span style=&quot;-webkit-user-drag: none; -webkit-tap-highlight-color: transparent; margin: 0px; padding: 0px; user-select: text; font-variant-ligatures: none !important; font-size: 12pt; line-height: 20.925px; font-family: Aptos, Aptos_EmbeddedFont, Aptos_MSFontService, sans-serif;&quot; class=&quot;TextRun SCXW186897226 BCX0&quot; lang=&quot;FR-FR&quot; data-contrast=&quot;auto&quot;&gt;- Pour chaque &lt;/span&gt;&lt;span style=&quot;-webkit-user-drag: none; -webkit-tap-highlight-color: transparent; margin: 0px; padding: 0px; user-select: text; outline: transparent solid 1px; font-variant-ligatures: none !important; background-color: rgb(0, 255, 0); font-size: 12pt; line-height: 20.925px; font-family: Aptos, Aptos_EmbeddedFont, Aptos_MSFontService, sans-serif;&quot; class=&quot;TextRun Highlight SCXW186897226 BCX0&quot; lang=&quot;FR-FR&quot; data-contrast=&quot;auto&quot;&gt;&lt;span style=&quot;-webkit-user-drag: none; -webkit-tap-highlight-color: transparent; margin: 0px; padding: 0px; user-select: text;&quot; class=&quot;NormalTextRun SCXW186897226 BCX0&quot;&gt;cours&lt;/span&gt;&lt;/span&gt;&lt;span style=&quot;-webkit-user-drag: none; -webkit-tap-highlight-color: transparent; margin: 0px; padding: 0px; user-select: text; font-variant-ligatures: none !important; font-size: 12pt; line-height: 20.925px; font-family: Aptos, Aptos_EmbeddedFont, Aptos_MSFontService, sans-serif;&quot; class=&quot;TextRun SCXW186897226 BCX0&quot; lang=&quot;FR-FR&quot; data-contrast=&quot;auto&quot;&gt; : le &lt;/span&gt;&lt;span style=&quot;-webkit-user-drag: none; -webkit-tap-highlight-color: transparent; margin: 0px; padding: 0px; user-select: text; font-variant-ligatures: none !important; color: rgb(25, 107, 36); font-size: 12pt; line-height: 20.925px; font-family: Aptos, Aptos_EmbeddedFont, Aptos_MSFontService, sans-serif;&quot; class=&quot;TextRun SCXW186897226 BCX0&quot; lang=&quot;FR-FR&quot; data-contrast=&quot;none&quot;&gt;mnémonique&lt;/span&gt;&lt;span style=&quot;-webkit-user-drag: none; -webkit-tap-highlight-color: transparent; margin: 0px; padding: 0px; user-select: text; font-variant-ligatures: none !important; font-size: 12pt; line-height: 20.925px; font-family: Aptos, Aptos_EmbeddedFont, Aptos_MSFontService, sans-serif;&quot; class=&quot;TextRun SCXW186897226 BCX0&quot; lang=&quot;FR-FR&quot; data-contrast=&quot;auto&quot;&gt;, l&lt;/span&gt;&lt;span style=&quot;-webkit-user-drag: none; -webkit-tap-highlight-color: transparent; margin: 0px; padding: 0px; user-select: text; font-variant-ligatures: none !important; color: rgb(25, 107, 36); font-size: 12pt; line-height: 20.925px; font-family: Aptos, Aptos_EmbeddedFont, Aptos_MSFontService, sans-serif;&quot; class=&quot;TextRun SCXW186897226 BCX0&quot; lang=&quot;FR-FR&quot; data-contrast=&quot;none&quot;&gt;&#39;intitulé&lt;/span&gt;&lt;span style=&quot;-webkit-user-drag: none; -webkit-tap-highlight-color: transparent; margin: 0px; padding: 0px; user-select: text; font-variant-ligatures: none !important; font-size: 12pt; line-height: 20.925px; font-family: Aptos, Aptos_EmbeddedFont, Aptos_MSFontService, sans-serif;&quot; class=&quot;TextRun SCXW186897226 BCX0&quot; lang=&quot;FR-FR&quot; data-contrast=&quot;auto&quot;&gt; et un petit &lt;/span&gt;&lt;span style=&quot;-webkit-user-drag: none; -webkit-tap-highlight-color: transparent; margin: 0px; padding: 0px; user-select: text; font-variant-ligatures: none !important; color: rgb(25, 107, 36); font-size: 12pt; line-height: 20.925px; font-family: Aptos, Aptos_EmbeddedFont, Aptos_MSFontService, sans-serif;&quot; class=&quot;TextRun SCXW186897226 BCX0&quot; lang=&quot;FR-FR&quot; data-contrast=&quot;none&quot;&gt;résumé&lt;/span&gt;&lt;span style=&quot;-webkit-user-drag: none; -webkit-tap-highlight-color: transparent; margin: 0px; padding: 0px; user-select: text; font-variant-ligatures: none !important; font-size: 12pt; line-height: 20.925px; font-family: Aptos, Aptos_EmbeddedFont, Aptos_MSFontService, sans-serif;&quot; class=&quot;TextRun SCXW186897226 BCX0&quot; lang=&quot;FR-FR&quot; data-contrast=&quot;auto&quot;&gt;. &lt;/span&gt;&lt;span style=&quot;-webkit-user-drag: none; -webkit-tap-highlight-color: transparent; margin: 0px; padding: 0px; user-select: text; font-size: 12pt; line-height: 20.925px; font-family: Aptos, Aptos_EmbeddedFont, Aptos_MSFontService, sans-serif;&quot; data-ccp-props=&quot;{&amp;quot;201341983&amp;quot;:0,&amp;quot;335559739&amp;quot;:160,&amp;quot;335559740&amp;quot;:279}&quot; class=&quot;EOP SCXW186897226 BCX0&quot;&gt;&amp;nbsp;&lt;/span&gt;&lt;/p&gt;&lt;/div&gt;&lt;div style=&quot;-webkit-user-drag: none; -webkit-tap-highlight-color: transparent; margin: 0px; padding: 0px; user-select: text; clear: both; cursor: text; overflow: visible; position: relative; direction: ltr; font-family: &amp;quot;Segoe UI&amp;quot;, &amp;quot;Segoe UI Web&amp;quot;, Arial, Verdana, sans-serif; font-size: 12px; font-weight: 400; background-color: rgb(255, 255, 255);&quot; class=&quot;OutlineElement Ltr SCXW186897226 BCX0&quot;&gt;&lt;p style=&quot;-webkit-user-drag: none; -webkit-tap-highlight-color: transparent; margin: 0px 0px 10.6667px; padding: 0px; user-select: text; overflow-wrap: break-word; white-space-collapse: preserve; vertical-align: baseline; font-kerning: none; background-color: transparent; color: windowtext;&quot; lang=&quot;FR-FR&quot; class=&quot;Paragraph SCXW186897226 BCX0&quot;&gt;&lt;span style=&quot;-webkit-user-drag: none; -webkit-tap-highlight-color: transparent; margin: 0px; padding: 0px; user-select: text; font-variant-ligatures: none !important; font-size: 12pt; line-height: 20.925px; font-family: Aptos, Aptos_EmbeddedFont, Aptos_MSFontService, sans-serif;&quot; class=&quot;TextRun SCXW186897226 BCX0&quot; lang=&quot;FR-FR&quot; data-contrast=&quot;auto&quot;&gt;- Pour chaque &lt;/span&gt;&lt;span style=&quot;-webkit-user-drag: none; -webkit-tap-highlight-color: transparent; margin: 0px; padding: 0px; user-select: text; outline: transparent solid 1px; font-variant-ligatures: none !important; background-color: rgb(255, 0, 0); font-size: 12pt; line-height: 20.925px; font-family: Aptos, Aptos_EmbeddedFont, Aptos_MSFontService, sans-serif;&quot; class=&quot;TextRun Highlight SCXW186897226 BCX0&quot; lang=&quot;FR-FR&quot; data-contrast=&quot;auto&quot;&gt;&lt;span style=&quot;-webkit-user-drag: none; -webkit-tap-highlight-color: transparent; margin: 0px; padding: 0px; user-select: text;&quot; class=&quot;NormalTextRun SCXW186897226 BCX0&quot;&gt;professeur&lt;/span&gt;&lt;/span&gt;&lt;span style=&quot;-webkit-user-drag: none; -webkit-tap-highlight-color: transparent; margin: 0px; padding: 0px; user-select: text; font-variant-ligatures: none !important; font-size: 12pt; line-height: 20.925px; font-family: Aptos, Aptos_EmbeddedFont, Aptos_MSFontService, sans-serif;&quot; class=&quot;TextRun SCXW186897226 BCX0&quot; lang=&quot;FR-FR&quot; data-contrast=&quot;auto&quot;&gt; : son numéro de &lt;/span&gt;&lt;span style=&quot;-webkit-user-drag: none; -webkit-tap-highlight-color: transparent; margin: 0px; padding: 0px; user-select: text; font-variant-ligatures: none !important; color: rgb(255, 0, 0); font-size: 12pt; line-height: 20.925px; font-family: Aptos, Aptos_EmbeddedFont, Aptos_MSFontService, sans-serif;&quot; class=&quot;TextRun SCXW186897226 BCX0&quot; lang=&quot;FR-FR&quot; data-contrast=&quot;none&quot;&gt;matricule&lt;/span&gt;&lt;span style=&quot;-webkit-user-drag: none; -webkit-tap-highlight-color: transparent; margin: 0px; padding: 0px; user-select: text; font-variant-ligatures: none !important; font-size: 12pt; line-height: 20.925px; font-family: Aptos, Aptos_EmbeddedFont, Aptos_MSFontService, sans-serif;&quot; class=&quot;TextRun SCXW186897226 BCX0&quot; lang=&quot;FR-FR&quot; data-contrast=&quot;auto&quot;&gt;, son&lt;/span&gt;&lt;span style=&quot;-webkit-user-drag: none; -webkit-tap-highlight-color: transparent; margin: 0px; padding: 0px; user-select: text; font-variant-ligatures: none !important; color: rgb(255, 0, 0); font-size: 12pt; line-height: 20.925px; font-family: Aptos, Aptos_EmbeddedFont, Aptos_MSFontService, sans-serif;&quot; class=&quot;TextRun SCXW186897226 BCX0&quot; lang=&quot;FR-FR&quot; data-contrast=&quot;none&quot;&gt; titre&lt;/span&gt;&lt;span style=&quot;-webkit-user-drag: none; -webkit-tap-highlight-color: transparent; margin: 0px; padding: 0px; user-select: text; font-variant-ligatures: none !important; font-size: 12pt; line-height: 20.925px; font-family: Aptos, Aptos_EmbeddedFont, Aptos_MSFontService, sans-serif;&quot; class=&quot;TextRun SCXW186897226 BCX0&quot; lang=&quot;FR-FR&quot; data-contrast=&quot;auto&quot;&gt;, son &lt;/span&gt;&lt;span style=&quot;-webkit-user-drag: none; -webkit-tap-highlight-color: transparent; margin: 0px; padding: 0px; user-select: text; font-variant-ligatures: none !important; color: rgb(255, 0, 0); font-size: 12pt; line-height: 20.925px; font-family: Aptos, Aptos_EmbeddedFont, Aptos_MSFontService, sans-serif;&quot; class=&quot;TextRun SCXW186897226 BCX0&quot; lang=&quot;FR-FR&quot; data-contrast=&quot;none&quot;&gt;nom&lt;/span&gt;&lt;span style=&quot;-webkit-user-drag: none; -webkit-tap-highlight-color: transparent; margin: 0px; padding: 0px; user-select: text; font-variant-ligatures: none !important; font-size: 12pt; line-height: 20.925px; font-family: Aptos, Aptos_EmbeddedFont, Aptos_MSFontService, sans-serif;&quot; class=&quot;TextRun SCXW186897226 BCX0&quot; lang=&quot;FR-FR&quot; data-contrast=&quot;auto&quot;&gt;, son &lt;/span&gt;&lt;span style=&quot;-webkit-user-drag: none; -webkit-tap-highlight-color: transparent; margin: 0px; padding: 0px; user-select: text; font-variant-ligatures: none !important; color: rgb(255, 0, 0); font-size: 12pt; line-height: 20.925px; font-family: Aptos, Aptos_EmbeddedFont, Aptos_MSFontService, sans-serif;&quot; class=&quot;TextRun SCXW186897226 BCX0&quot; lang=&quot;FR-FR&quot; data-contrast=&quot;none&quot;&gt;prénom&lt;/span&gt;&lt;span style=&quot;-webkit-user-drag: none; -webkit-tap-highlight-color: transparent; margin: 0px; padding: 0px; user-select: text; font-variant-ligatures: none !important; font-size: 12pt; line-height: 20.925px; font-family: Aptos, Aptos_EmbeddedFont, Aptos_MSFontService, sans-serif;&quot; class=&quot;TextRun SCXW186897226 BCX0&quot; lang=&quot;FR-FR&quot; data-contrast=&quot;auto&quot;&gt;, et son &lt;/span&gt;&lt;span style=&quot;-webkit-user-drag: none; -webkit-tap-highlight-color: transparent; margin: 0px; padding: 0px; user-select: text; font-variant-ligatures: none !important; color: rgb(255, 0, 0); font-size: 12pt; line-height: 20.925px; font-family: Aptos, Aptos_EmbeddedFont, Aptos_MSFontService, sans-serif;&quot; class=&quot;TextRun SCXW186897226 BCX0&quot; lang=&quot;FR-FR&quot; data-contrast=&quot;none&quot;&gt;adresse&lt;/span&gt;&lt;span style=&quot;-webkit-user-drag: none; -webkit-tap-highlight-color: transparent; margin: 0px; padding: 0px; user-select: text; font-variant-ligatures: none !important; font-size: 12pt; line-height: 20.925px; font-family: Aptos, Aptos_EmbeddedFont, Aptos_MSFontService, sans-serif;&quot; class=&quot;TextRun SCXW186897226 BCX0&quot; lang=&quot;FR-FR&quot; data-contrast=&quot;auto&quot;&gt;. &lt;/span&gt;&lt;span style=&quot;-webkit-user-drag: none; -webkit-tap-highlight-color: transparent; margin: 0px; padding: 0px; user-select: text; font-size: 12pt; line-height: 20.925px; font-family: Aptos, Aptos_EmbeddedFont, Aptos_MSFontService, sans-serif;&quot; data-ccp-props=&quot;{&amp;quot;201341983&amp;quot;:0,&amp;quot;335559739&amp;quot;:160,&amp;quot;335559740&amp;quot;:279}&quot; class=&quot;EOP SCXW186897226 BCX0&quot;&gt;&amp;nbsp;&lt;/span&gt;&lt;/p&gt;&lt;/div&gt;&lt;div style=&quot;-webkit-user-drag: none; -webkit-tap-highlight-color: transparent; margin: 0px; padding: 0px; user-select: text; clear: both; cursor: text; overflow: visible; position: relative; direction: ltr; font-family: &amp;quot;Segoe UI&amp;quot;, &amp;quot;Segoe UI Web&amp;quot;, Arial, Verdana, sans-serif; font-size: 12px; font-weight: 400; background-color: rgb(255, 255, 255);&quot; class=&quot;OutlineElement Ltr SCXW186897226 BCX0&quot;&gt;&lt;p style=&quot;-webkit-user-drag: none; -webkit-tap-highlight-color: transparent; margin: 0px 0px 10.6667px; padding: 0px; user-select: text; overflow-wrap: break-word; white-space-collapse: preserve; vertical-align: baseline; font-kerning: none; background-color: transparent; color: windowtext;&quot; lang=&quot;FR-FR&quot; class=&quot;Paragraph SCXW186897226 BCX0&quot;&gt;&lt;span style=&quot;-webkit-user-drag: none; -webkit-tap-highlight-color: transparent; margin: 0px; padding: 0px; user-select: text; font-variant-ligatures: none !important; font-size: 12pt; line-height: 20.925px; font-family: Aptos, Aptos_EmbeddedFont, Aptos_MSFontService, sans-serif;&quot; class=&quot;TextRun SCXW186897226 BCX0&quot; lang=&quot;FR-FR&quot; data-contrast=&quot;auto&quot;&gt;De plus le système doit savoir &lt;/span&gt;&lt;span style=&quot;-webkit-user-drag: none; -webkit-tap-highlight-color: transparent; margin: 0px; padding: 0px; user-select: text; font-size: 12pt; text-decoration-line: underline; line-height: 20.925px; font-family: Aptos, Aptos_EmbeddedFont, Aptos_MSFontService, sans-serif; font-variant-ligatures: none !important;&quot; class=&quot;TextRun Underlined SCXW186897226 BCX0&quot; lang=&quot;FR-FR&quot; data-contrast=&quot;auto&quot;&gt;&lt;span style=&quot;-webkit-user-drag: none; -webkit-tap-highlight-color: transparent; margin: 0px; padding: 0px; user-select: text;&quot; class=&quot;NormalTextRun SCXW186897226 BCX0&quot;&gt;quels sont les cours que chaque étudiant suit&lt;/span&gt;&lt;/span&gt;&lt;span style=&quot;-webkit-user-drag: none; -webkit-tap-highlight-color: transparent; margin: 0px; padding: 0px; user-select: text; font-variant-ligatures: none !important; font-size: 12pt; line-height: 20.925px; font-family: Aptos, Aptos_EmbeddedFont, Aptos_MSFontService, sans-serif;&quot; class=&quot;TextRun SCXW186897226 BCX0&quot; lang=&quot;FR-FR&quot; data-contrast=&quot;auto&quot;&gt;, &lt;/span&gt;&lt;span style=&quot;-webkit-user-drag: none; -webkit-tap-highlight-color: transparent; margin: 0px; padding: 0px; user-select: text; font-size: 12pt; text-decoration-line: underline; line-height: 20.925px; font-family: Aptos, Aptos_EmbeddedFont, Aptos_MSFontService, sans-serif; font-variant-ligatures: none !important;&quot; class=&quot;TextRun Underlined SCXW186897226 BCX0&quot; lang=&quot;FR-FR&quot; data-contrast=&quot;auto&quot;&gt;&lt;span style=&quot;-webkit-user-drag: none; -webkit-tap-highlight-color: transparent; margin: 0px; padding: 0px; user-select: text;&quot; class=&quot;NormalTextRun SCXW186897226 BCX0&quot;&gt;le professeur titulaire de chaque cours&lt;/span&gt;&lt;/span&gt;&lt;span style=&quot;-webkit-user-drag: none; -webkit-tap-highlight-color: transparent; margin: 0px; padding: 0px; user-select: text; font-variant-ligatures: none !important; font-size: 12pt; line-height: 20.925px; font-family: Aptos, Aptos_EmbeddedFont, Aptos_MSFontService, sans-serif;&quot; class=&quot;TextRun SCXW186897226 BCX0&quot; lang=&quot;FR-FR&quot; data-contrast=&quot;auto&quot;&gt;, la &lt;/span&gt;&lt;span style=&quot;-webkit-user-drag: none; -webkit-tap-highlight-color: transparent; margin: 0px; padding: 0px; user-select: text; outline: transparent solid 1px; background-color: rgb(255, 0, 255); font-size: 12pt; text-decoration-line: underline; line-height: 20.925px; font-family: Aptos, Aptos_EmbeddedFont, Aptos_MSFontService, sans-serif; font-variant-ligatures: none !important;&quot; class=&quot;TextRun Highlight Underlined SCXW186897226 BCX0&quot; lang=&quot;FR-FR&quot; data-contrast=&quot;auto&quot;&gt;&lt;span style=&quot;-webkit-user-drag: none; -webkit-tap-highlight-color: transparent; margin: 0px; padding: 0px; user-select: text;&quot; class=&quot;NormalTextRun SCXW186897226 BCX0&quot;&gt;filière&lt;/span&gt;&lt;/span&gt;&lt;span style=&quot;-webkit-user-drag: none; -webkit-tap-highlight-color: transparent; margin: 0px; padding: 0px; user-select: text; font-size: 12pt; text-decoration-line: underline; line-height: 20.925px; font-family: Aptos, Aptos_EmbeddedFont, Aptos_MSFontService, sans-serif; font-variant-ligatures: none !important;&quot; class=&quot;TextRun Underlined SCXW186897226 BCX0&quot; lang=&quot;FR-FR&quot; data-contrast=&quot;auto&quot;&gt;&lt;span style=&quot;-webkit-user-drag: none; -webkit-tap-highlight-color: transparent; margin: 0px; padding: 0px; user-select: text;&quot; class=&quot;NormalTextRun SCXW186897226 BCX0&quot;&gt; choisie par chaque étudiant&lt;/span&gt;&lt;/span&gt;&lt;span style=&quot;-webkit-user-drag: none; -webkit-tap-highlight-color: transparent; margin: 0px; padding: 0px; user-select: text; font-variant-ligatures: none !important; font-size: 12pt; line-height: 20.925px; font-family: Aptos, Aptos_EmbeddedFont, Aptos_MSFontService, sans-serif;&quot; class=&quot;TextRun SCXW186897226 BCX0&quot; lang=&quot;FR-FR&quot; data-contrast=&quot;auto&quot;&gt; et pour chaque filière (dont on retient le &lt;/span&gt;&lt;span style=&quot;-webkit-user-drag: none; -webkit-tap-highlight-color: transparent; margin: 0px; padding: 0px; user-select: text; font-variant-ligatures: none !important; color: rgb(160, 43, 147); font-size: 12pt; line-height: 20.925px; font-family: Aptos, Aptos_EmbeddedFont, Aptos_MSFontService, sans-serif;&quot; class=&quot;TextRun SCXW186897226 BCX0&quot; lang=&quot;FR-FR&quot; data-contrast=&quot;none&quot;&gt;nom&lt;/span&gt;&lt;span style=&quot;-webkit-user-drag: none; -webkit-tap-highlight-color: transparent; margin: 0px; padding: 0px; user-select: text; font-variant-ligatures: none !important; font-size: 12pt; line-height: 20.925px; font-family: Aptos, Aptos_EmbeddedFont, Aptos_MSFontService, sans-serif;&quot; class=&quot;TextRun SCXW186897226 BCX0&quot; lang=&quot;FR-FR&quot; data-contrast=&quot;auto&quot;&gt; et le &lt;/span&gt;&lt;span style=&quot;-webkit-user-drag: none; -webkit-tap-highlight-color: transparent; margin: 0px; padding: 0px; user-select: text; font-variant-ligatures: none !important; color: rgb(160, 43, 147); font-size: 12pt; line-height: 20.925px; font-family: Aptos, Aptos_EmbeddedFont, Aptos_MSFontService, sans-serif;&quot; class=&quot;TextRun SCXW186897226 BCX0&quot; lang=&quot;FR-FR&quot; data-contrast=&quot;none&quot;&gt;code&lt;/span&gt;&lt;span style=&quot;-webkit-user-drag: none; -webkit-tap-highlight-color: transparent; margin: 0px; padding: 0px; user-select: text; font-variant-ligatures: none !important; font-size: 12pt; line-height: 20.925px; font-family: Aptos, Aptos_EmbeddedFont, Aptos_MSFontService, sans-serif;&quot; class=&quot;TextRun SCXW186897226 BCX0&quot; lang=&quot;FR-FR&quot; data-contrast=&quot;auto&quot;&gt;) le &lt;/span&gt;&lt;span style=&quot;-webkit-user-drag: none; -webkit-tap-highlight-color: transparent; margin: 0px; padding: 0px; user-select: text; font-size: 12pt; text-decoration-line: underline; line-height: 20.925px; font-family: Aptos, Aptos_EmbeddedFont, Aptos_MSFontService, sans-serif; font-variant-ligatures: none !important;&quot; class=&quot;TextRun Underlined SCXW186897226 BCX0&quot; lang=&quot;FR-FR&quot; data-contrast=&quot;auto&quot;&gt;&lt;span style=&quot;-webkit-user-drag: none; -webkit-tap-highlight-color: transparent; margin: 0px; padding: 0px; user-select: text;&quot; class=&quot;NormalTextRun SCXW186897226 BCX0&quot;&gt;professeur la dirigeant.&lt;/span&gt;&lt;/span&gt;&lt;span style=&quot;-webkit-user-drag: none; -webkit-tap-highlight-color: transparent; margin: 0px; padding: 0px; user-select: text; font-size: 12pt; line-height: 20.925px; font-family: Aptos, Aptos_EmbeddedFont, Aptos_MSFontService, sans-serif;&quot; data-ccp-props=&quot;{&amp;quot;201341983&amp;quot;:0,&amp;quot;335559739&amp;quot;:160,&amp;quot;335559740&amp;quot;:279}&quot; class=&quot;EOP SCXW186897226 BCX0&quot;&gt;&amp;nbsp;&lt;/span&gt;&lt;/p&gt;&lt;/div&gt;&lt;/h1&gt;" style="text;html=1;whiteSpace=wrap;overflow=hidden;rounded=0;" parent="1" vertex="1">
          <mxGeometry x="10" y="10" width="810" height="240" as="geometry" />
        </mxCell>
        <mxCell id="Lc5PZ5OLvWeDF66VV4uw-2" value="Etudiant" style="swimlane;fontStyle=0;childLayout=stackLayout;horizontal=1;startSize=30;horizontalStack=0;resizeParent=1;resizeParentMax=0;resizeLast=0;collapsible=1;marginBottom=0;whiteSpace=wrap;html=1;fillColor=#1ba1e2;fontColor=#ffffff;strokeColor=#006EAF;" parent="1" vertex="1">
          <mxGeometry x="10" y="280" width="140" height="270" as="geometry" />
        </mxCell>
        <mxCell id="Lc5PZ5OLvWeDF66VV4uw-3" value="&lt;b&gt;&lt;u&gt;Matricule&lt;/u&gt;&lt;/b&gt;" style="text;strokeColor=none;fillColor=none;align=left;verticalAlign=middle;spacingLeft=4;spacingRight=4;overflow=hidden;points=[[0,0.5],[1,0.5]];portConstraint=eastwest;rotatable=0;whiteSpace=wrap;html=1;" parent="Lc5PZ5OLvWeDF66VV4uw-2" vertex="1">
          <mxGeometry y="30" width="140" height="30" as="geometry" />
        </mxCell>
        <mxCell id="Lc5PZ5OLvWeDF66VV4uw-4" value="Nom" style="text;strokeColor=none;fillColor=none;align=left;verticalAlign=middle;spacingLeft=4;spacingRight=4;overflow=hidden;points=[[0,0.5],[1,0.5]];portConstraint=eastwest;rotatable=0;whiteSpace=wrap;html=1;" parent="Lc5PZ5OLvWeDF66VV4uw-2" vertex="1">
          <mxGeometry y="60" width="140" height="30" as="geometry" />
        </mxCell>
        <mxCell id="Lc5PZ5OLvWeDF66VV4uw-5" value="Prenom" style="text;strokeColor=none;fillColor=none;align=left;verticalAlign=middle;spacingLeft=4;spacingRight=4;overflow=hidden;points=[[0,0.5],[1,0.5]];portConstraint=eastwest;rotatable=0;whiteSpace=wrap;html=1;" parent="Lc5PZ5OLvWeDF66VV4uw-2" vertex="1">
          <mxGeometry y="90" width="140" height="30" as="geometry" />
        </mxCell>
        <mxCell id="Lc5PZ5OLvWeDF66VV4uw-19" value="Adresse" style="text;strokeColor=none;fillColor=none;align=left;verticalAlign=middle;spacingLeft=4;spacingRight=4;overflow=hidden;points=[[0,0.5],[1,0.5]];portConstraint=eastwest;rotatable=0;whiteSpace=wrap;html=1;" parent="Lc5PZ5OLvWeDF66VV4uw-2" vertex="1">
          <mxGeometry y="120" width="140" height="30" as="geometry" />
        </mxCell>
        <mxCell id="Lc5PZ5OLvWeDF66VV4uw-20" value="&lt;blockquote style=&quot;margin: 0 0 0 40px; border: none; padding: 0px;&quot;&gt;Rue&lt;/blockquote&gt;" style="text;strokeColor=none;fillColor=none;align=left;verticalAlign=middle;spacingLeft=4;spacingRight=4;overflow=hidden;points=[[0,0.5],[1,0.5]];portConstraint=eastwest;rotatable=0;whiteSpace=wrap;html=1;" parent="Lc5PZ5OLvWeDF66VV4uw-2" vertex="1">
          <mxGeometry y="150" width="140" height="30" as="geometry" />
        </mxCell>
        <mxCell id="Lc5PZ5OLvWeDF66VV4uw-21" value="&lt;blockquote style=&quot;margin: 0 0 0 40px; border: none; padding: 0px;&quot;&gt;Numero&lt;/blockquote&gt;" style="text;strokeColor=none;fillColor=none;align=left;verticalAlign=middle;spacingLeft=4;spacingRight=4;overflow=hidden;points=[[0,0.5],[1,0.5]];portConstraint=eastwest;rotatable=0;whiteSpace=wrap;html=1;" parent="Lc5PZ5OLvWeDF66VV4uw-2" vertex="1">
          <mxGeometry y="180" width="140" height="30" as="geometry" />
        </mxCell>
        <mxCell id="Lc5PZ5OLvWeDF66VV4uw-22" value="&lt;blockquote style=&quot;margin: 0 0 0 40px; border: none; padding: 0px;&quot;&gt;CP&lt;/blockquote&gt;" style="text;strokeColor=none;fillColor=none;align=left;verticalAlign=middle;spacingLeft=4;spacingRight=4;overflow=hidden;points=[[0,0.5],[1,0.5]];portConstraint=eastwest;rotatable=0;whiteSpace=wrap;html=1;" parent="Lc5PZ5OLvWeDF66VV4uw-2" vertex="1">
          <mxGeometry y="210" width="140" height="30" as="geometry" />
        </mxCell>
        <mxCell id="Lc5PZ5OLvWeDF66VV4uw-23" value="&lt;blockquote style=&quot;margin: 0 0 0 40px; border: none; padding: 0px;&quot;&gt;Ville&lt;/blockquote&gt;" style="text;strokeColor=none;fillColor=none;align=left;verticalAlign=middle;spacingLeft=4;spacingRight=4;overflow=hidden;points=[[0,0.5],[1,0.5]];portConstraint=eastwest;rotatable=0;whiteSpace=wrap;html=1;" parent="Lc5PZ5OLvWeDF66VV4uw-2" vertex="1">
          <mxGeometry y="240" width="140" height="30" as="geometry" />
        </mxCell>
        <mxCell id="Lc5PZ5OLvWeDF66VV4uw-7" value="Cours" style="swimlane;fontStyle=0;childLayout=stackLayout;horizontal=1;startSize=30;horizontalStack=0;resizeParent=1;resizeParentMax=0;resizeLast=0;collapsible=1;marginBottom=0;whiteSpace=wrap;html=1;fillColor=#60a917;fontColor=#ffffff;strokeColor=#2D7600;" parent="1" vertex="1">
          <mxGeometry x="350" y="280" width="140" height="120" as="geometry" />
        </mxCell>
        <mxCell id="Lc5PZ5OLvWeDF66VV4uw-8" value="&lt;b&gt;&lt;u&gt;Mnemonique&lt;/u&gt;&lt;/b&gt;" style="text;strokeColor=none;fillColor=none;align=left;verticalAlign=middle;spacingLeft=4;spacingRight=4;overflow=hidden;points=[[0,0.5],[1,0.5]];portConstraint=eastwest;rotatable=0;whiteSpace=wrap;html=1;" parent="Lc5PZ5OLvWeDF66VV4uw-7" vertex="1">
          <mxGeometry y="30" width="140" height="30" as="geometry" />
        </mxCell>
        <mxCell id="Lc5PZ5OLvWeDF66VV4uw-9" value="Intitulé" style="text;strokeColor=none;fillColor=none;align=left;verticalAlign=middle;spacingLeft=4;spacingRight=4;overflow=hidden;points=[[0,0.5],[1,0.5]];portConstraint=eastwest;rotatable=0;whiteSpace=wrap;html=1;" parent="Lc5PZ5OLvWeDF66VV4uw-7" vertex="1">
          <mxGeometry y="60" width="140" height="30" as="geometry" />
        </mxCell>
        <mxCell id="Lc5PZ5OLvWeDF66VV4uw-10" value="resume" style="text;strokeColor=none;fillColor=none;align=left;verticalAlign=middle;spacingLeft=4;spacingRight=4;overflow=hidden;points=[[0,0.5],[1,0.5]];portConstraint=eastwest;rotatable=0;whiteSpace=wrap;html=1;" parent="Lc5PZ5OLvWeDF66VV4uw-7" vertex="1">
          <mxGeometry y="90" width="140" height="30" as="geometry" />
        </mxCell>
        <mxCell id="Lc5PZ5OLvWeDF66VV4uw-11" value="Professeur" style="swimlane;fontStyle=0;childLayout=stackLayout;horizontal=1;startSize=30;horizontalStack=0;resizeParent=1;resizeParentMax=0;resizeLast=0;collapsible=1;marginBottom=0;whiteSpace=wrap;html=1;fillColor=#e51400;fontColor=#ffffff;strokeColor=#B20000;" parent="1" vertex="1">
          <mxGeometry x="680" y="280" width="140" height="300" as="geometry" />
        </mxCell>
        <mxCell id="Lc5PZ5OLvWeDF66VV4uw-12" value="&lt;b&gt;&lt;u&gt;Matricule&lt;/u&gt;&lt;/b&gt;" style="text;strokeColor=none;fillColor=none;align=left;verticalAlign=middle;spacingLeft=4;spacingRight=4;overflow=hidden;points=[[0,0.5],[1,0.5]];portConstraint=eastwest;rotatable=0;whiteSpace=wrap;html=1;" parent="Lc5PZ5OLvWeDF66VV4uw-11" vertex="1">
          <mxGeometry y="30" width="140" height="30" as="geometry" />
        </mxCell>
        <mxCell id="Lc5PZ5OLvWeDF66VV4uw-13" value="Titre" style="text;strokeColor=none;fillColor=none;align=left;verticalAlign=middle;spacingLeft=4;spacingRight=4;overflow=hidden;points=[[0,0.5],[1,0.5]];portConstraint=eastwest;rotatable=0;whiteSpace=wrap;html=1;" parent="Lc5PZ5OLvWeDF66VV4uw-11" vertex="1">
          <mxGeometry y="60" width="140" height="30" as="geometry" />
        </mxCell>
        <mxCell id="Lc5PZ5OLvWeDF66VV4uw-14" value="Nom" style="text;strokeColor=none;fillColor=none;align=left;verticalAlign=middle;spacingLeft=4;spacingRight=4;overflow=hidden;points=[[0,0.5],[1,0.5]];portConstraint=eastwest;rotatable=0;whiteSpace=wrap;html=1;" parent="Lc5PZ5OLvWeDF66VV4uw-11" vertex="1">
          <mxGeometry y="90" width="140" height="30" as="geometry" />
        </mxCell>
        <mxCell id="Lc5PZ5OLvWeDF66VV4uw-25" value="Prenom" style="text;strokeColor=none;fillColor=none;align=left;verticalAlign=middle;spacingLeft=4;spacingRight=4;overflow=hidden;points=[[0,0.5],[1,0.5]];portConstraint=eastwest;rotatable=0;whiteSpace=wrap;html=1;" parent="Lc5PZ5OLvWeDF66VV4uw-11" vertex="1">
          <mxGeometry y="120" width="140" height="30" as="geometry" />
        </mxCell>
        <mxCell id="Lc5PZ5OLvWeDF66VV4uw-32" value="Adresse" style="text;strokeColor=none;fillColor=none;align=left;verticalAlign=middle;spacingLeft=4;spacingRight=4;overflow=hidden;points=[[0,0.5],[1,0.5]];portConstraint=eastwest;rotatable=0;whiteSpace=wrap;html=1;" parent="Lc5PZ5OLvWeDF66VV4uw-11" vertex="1">
          <mxGeometry y="150" width="140" height="30" as="geometry" />
        </mxCell>
        <mxCell id="Lc5PZ5OLvWeDF66VV4uw-33" value="&lt;blockquote style=&quot;margin: 0 0 0 40px; border: none; padding: 0px;&quot;&gt;Rue&lt;/blockquote&gt;" style="text;strokeColor=none;fillColor=none;align=left;verticalAlign=middle;spacingLeft=4;spacingRight=4;overflow=hidden;points=[[0,0.5],[1,0.5]];portConstraint=eastwest;rotatable=0;whiteSpace=wrap;html=1;" parent="Lc5PZ5OLvWeDF66VV4uw-11" vertex="1">
          <mxGeometry y="180" width="140" height="30" as="geometry" />
        </mxCell>
        <mxCell id="Lc5PZ5OLvWeDF66VV4uw-34" value="&lt;blockquote style=&quot;margin: 0 0 0 40px; border: none; padding: 0px;&quot;&gt;Numero&lt;/blockquote&gt;" style="text;strokeColor=none;fillColor=none;align=left;verticalAlign=middle;spacingLeft=4;spacingRight=4;overflow=hidden;points=[[0,0.5],[1,0.5]];portConstraint=eastwest;rotatable=0;whiteSpace=wrap;html=1;" parent="Lc5PZ5OLvWeDF66VV4uw-11" vertex="1">
          <mxGeometry y="210" width="140" height="30" as="geometry" />
        </mxCell>
        <mxCell id="Lc5PZ5OLvWeDF66VV4uw-35" value="&lt;blockquote style=&quot;margin: 0 0 0 40px; border: none; padding: 0px;&quot;&gt;CP&lt;/blockquote&gt;" style="text;strokeColor=none;fillColor=none;align=left;verticalAlign=middle;spacingLeft=4;spacingRight=4;overflow=hidden;points=[[0,0.5],[1,0.5]];portConstraint=eastwest;rotatable=0;whiteSpace=wrap;html=1;" parent="Lc5PZ5OLvWeDF66VV4uw-11" vertex="1">
          <mxGeometry y="240" width="140" height="30" as="geometry" />
        </mxCell>
        <mxCell id="Lc5PZ5OLvWeDF66VV4uw-36" value="&lt;blockquote style=&quot;margin: 0 0 0 40px; border: none; padding: 0px;&quot;&gt;Ville&lt;/blockquote&gt;" style="text;strokeColor=none;fillColor=none;align=left;verticalAlign=middle;spacingLeft=4;spacingRight=4;overflow=hidden;points=[[0,0.5],[1,0.5]];portConstraint=eastwest;rotatable=0;whiteSpace=wrap;html=1;" parent="Lc5PZ5OLvWeDF66VV4uw-11" vertex="1">
          <mxGeometry y="270" width="140" height="30" as="geometry" />
        </mxCell>
        <mxCell id="Lc5PZ5OLvWeDF66VV4uw-15" value="Filiere" style="swimlane;fontStyle=0;childLayout=stackLayout;horizontal=1;startSize=30;horizontalStack=0;resizeParent=1;resizeParentMax=0;resizeLast=0;collapsible=1;marginBottom=0;whiteSpace=wrap;html=1;fillColor=#d80073;fontColor=#ffffff;strokeColor=#A50040;" parent="1" vertex="1">
          <mxGeometry x="345" y="630" width="140" height="90" as="geometry" />
        </mxCell>
        <mxCell id="Lc5PZ5OLvWeDF66VV4uw-16" value="&lt;b&gt;&lt;u&gt;Code&lt;/u&gt;&lt;/b&gt;" style="text;strokeColor=none;fillColor=none;align=left;verticalAlign=middle;spacingLeft=4;spacingRight=4;overflow=hidden;points=[[0,0.5],[1,0.5]];portConstraint=eastwest;rotatable=0;whiteSpace=wrap;html=1;" parent="Lc5PZ5OLvWeDF66VV4uw-15" vertex="1">
          <mxGeometry y="30" width="140" height="30" as="geometry" />
        </mxCell>
        <mxCell id="Lc5PZ5OLvWeDF66VV4uw-17" value="Nom" style="text;strokeColor=none;fillColor=none;align=left;verticalAlign=middle;spacingLeft=4;spacingRight=4;overflow=hidden;points=[[0,0.5],[1,0.5]];portConstraint=eastwest;rotatable=0;whiteSpace=wrap;html=1;" parent="Lc5PZ5OLvWeDF66VV4uw-15" vertex="1">
          <mxGeometry y="60" width="140" height="30" as="geometry" />
        </mxCell>
        <mxCell id="u2M_nIq_1dA3qfQZ3DOW-1" value="Participe" style="shape=hexagon;perimeter=hexagonPerimeter2;whiteSpace=wrap;html=1;fixedSize=1;" parent="1" vertex="1">
          <mxGeometry x="210" y="330" width="90" height="30" as="geometry" />
        </mxCell>
        <mxCell id="u2M_nIq_1dA3qfQZ3DOW-2" style="edgeStyle=orthogonalEdgeStyle;rounded=0;orthogonalLoop=1;jettySize=auto;html=1;exitX=0;exitY=0.5;exitDx=0;exitDy=0;entryX=0.983;entryY=0.18;entryDx=0;entryDy=0;entryPerimeter=0;endArrow=none;endFill=0;" parent="1" source="u2M_nIq_1dA3qfQZ3DOW-1" target="Lc5PZ5OLvWeDF66VV4uw-4" edge="1">
          <mxGeometry relative="1" as="geometry" />
        </mxCell>
        <mxCell id="u2M_nIq_1dA3qfQZ3DOW-16" value="1-n" style="edgeLabel;html=1;align=center;verticalAlign=middle;resizable=0;points=[];fontFamily=Helvetica;fontSize=11;fontColor=default;labelBackgroundColor=default;" parent="u2M_nIq_1dA3qfQZ3DOW-2" vertex="1" connectable="0">
          <mxGeometry x="-0.1271" y="1" relative="1" as="geometry">
            <mxPoint x="1" as="offset" />
          </mxGeometry>
        </mxCell>
        <mxCell id="u2M_nIq_1dA3qfQZ3DOW-3" style="edgeStyle=orthogonalEdgeStyle;rounded=0;orthogonalLoop=1;jettySize=auto;html=1;exitX=1;exitY=0.5;exitDx=0;exitDy=0;entryX=0.009;entryY=0.153;entryDx=0;entryDy=0;entryPerimeter=0;endArrow=none;endFill=0;" parent="1" source="u2M_nIq_1dA3qfQZ3DOW-1" target="Lc5PZ5OLvWeDF66VV4uw-9" edge="1">
          <mxGeometry relative="1" as="geometry" />
        </mxCell>
        <mxCell id="u2M_nIq_1dA3qfQZ3DOW-17" value="0-n" style="edgeLabel;html=1;align=center;verticalAlign=middle;resizable=0;points=[];fontFamily=Helvetica;fontSize=11;fontColor=default;labelBackgroundColor=default;" parent="u2M_nIq_1dA3qfQZ3DOW-3" vertex="1" connectable="0">
          <mxGeometry x="-0.0244" relative="1" as="geometry">
            <mxPoint as="offset" />
          </mxGeometry>
        </mxCell>
        <mxCell id="u2M_nIq_1dA3qfQZ3DOW-4" value="Titulaire" style="shape=hexagon;perimeter=hexagonPerimeter2;whiteSpace=wrap;html=1;fixedSize=1;" parent="1" vertex="1">
          <mxGeometry x="540" y="330" width="90" height="30" as="geometry" />
        </mxCell>
        <mxCell id="u2M_nIq_1dA3qfQZ3DOW-6" style="edgeStyle=orthogonalEdgeStyle;shape=connector;rounded=0;orthogonalLoop=1;jettySize=auto;html=1;exitX=0;exitY=0.5;exitDx=0;exitDy=0;entryX=0.991;entryY=0.18;entryDx=0;entryDy=0;entryPerimeter=0;strokeColor=default;align=center;verticalAlign=middle;fontFamily=Helvetica;fontSize=11;fontColor=default;labelBackgroundColor=default;endArrow=none;endFill=0;" parent="1" source="u2M_nIq_1dA3qfQZ3DOW-4" target="Lc5PZ5OLvWeDF66VV4uw-9" edge="1">
          <mxGeometry relative="1" as="geometry" />
        </mxCell>
        <mxCell id="u2M_nIq_1dA3qfQZ3DOW-20" value="1-1" style="edgeLabel;html=1;align=center;verticalAlign=middle;resizable=0;points=[];fontFamily=Helvetica;fontSize=11;fontColor=default;labelBackgroundColor=default;" parent="u2M_nIq_1dA3qfQZ3DOW-6" vertex="1" connectable="0">
          <mxGeometry x="-0.0905" relative="1" as="geometry">
            <mxPoint as="offset" />
          </mxGeometry>
        </mxCell>
        <mxCell id="u2M_nIq_1dA3qfQZ3DOW-7" style="edgeStyle=orthogonalEdgeStyle;shape=connector;rounded=0;orthogonalLoop=1;jettySize=auto;html=1;exitX=1;exitY=0.5;exitDx=0;exitDy=0;entryX=-0.006;entryY=0.153;entryDx=0;entryDy=0;entryPerimeter=0;strokeColor=default;align=center;verticalAlign=middle;fontFamily=Helvetica;fontSize=11;fontColor=default;labelBackgroundColor=default;endArrow=none;endFill=0;" parent="1" source="u2M_nIq_1dA3qfQZ3DOW-4" target="Lc5PZ5OLvWeDF66VV4uw-13" edge="1">
          <mxGeometry relative="1" as="geometry" />
        </mxCell>
        <mxCell id="u2M_nIq_1dA3qfQZ3DOW-19" value="0-n" style="edgeLabel;html=1;align=center;verticalAlign=middle;resizable=0;points=[];fontFamily=Helvetica;fontSize=11;fontColor=default;labelBackgroundColor=default;" parent="u2M_nIq_1dA3qfQZ3DOW-7" vertex="1" connectable="0">
          <mxGeometry x="0.0522" relative="1" as="geometry">
            <mxPoint as="offset" />
          </mxGeometry>
        </mxCell>
        <mxCell id="u2M_nIq_1dA3qfQZ3DOW-12" style="edgeStyle=orthogonalEdgeStyle;shape=connector;rounded=0;orthogonalLoop=1;jettySize=auto;html=1;exitX=0;exitY=0.5;exitDx=0;exitDy=0;entryX=1;entryY=0.5;entryDx=0;entryDy=0;strokeColor=default;align=center;verticalAlign=middle;fontFamily=Helvetica;fontSize=11;fontColor=default;labelBackgroundColor=default;endArrow=none;endFill=0;" parent="1" source="u2M_nIq_1dA3qfQZ3DOW-9" target="Lc5PZ5OLvWeDF66VV4uw-21" edge="1">
          <mxGeometry relative="1" as="geometry" />
        </mxCell>
        <mxCell id="u2M_nIq_1dA3qfQZ3DOW-23" value="1-1" style="edgeLabel;html=1;align=center;verticalAlign=middle;resizable=0;points=[];fontFamily=Helvetica;fontSize=11;fontColor=default;labelBackgroundColor=default;" parent="u2M_nIq_1dA3qfQZ3DOW-12" vertex="1" connectable="0">
          <mxGeometry x="-0.1056" y="1" relative="1" as="geometry">
            <mxPoint as="offset" />
          </mxGeometry>
        </mxCell>
        <mxCell id="u2M_nIq_1dA3qfQZ3DOW-9" value="Affilie" style="shape=hexagon;perimeter=hexagonPerimeter2;whiteSpace=wrap;html=1;fixedSize=1;" parent="1" vertex="1">
          <mxGeometry x="210" y="460" width="90" height="30" as="geometry" />
        </mxCell>
        <mxCell id="u2M_nIq_1dA3qfQZ3DOW-15" style="edgeStyle=orthogonalEdgeStyle;shape=connector;rounded=0;orthogonalLoop=1;jettySize=auto;html=1;exitX=1;exitY=0.5;exitDx=0;exitDy=0;entryX=0;entryY=0.5;entryDx=0;entryDy=0;strokeColor=default;align=center;verticalAlign=middle;fontFamily=Helvetica;fontSize=11;fontColor=default;labelBackgroundColor=default;endArrow=none;endFill=0;" parent="1" source="u2M_nIq_1dA3qfQZ3DOW-11" target="Lc5PZ5OLvWeDF66VV4uw-33" edge="1">
          <mxGeometry relative="1" as="geometry" />
        </mxCell>
        <mxCell id="u2M_nIq_1dA3qfQZ3DOW-21" value="0-n" style="edgeLabel;html=1;align=center;verticalAlign=middle;resizable=0;points=[];fontFamily=Helvetica;fontSize=11;fontColor=default;labelBackgroundColor=default;" parent="u2M_nIq_1dA3qfQZ3DOW-15" vertex="1" connectable="0">
          <mxGeometry x="0.0933" y="-1" relative="1" as="geometry">
            <mxPoint as="offset" />
          </mxGeometry>
        </mxCell>
        <mxCell id="u2M_nIq_1dA3qfQZ3DOW-11" value="Dirige" style="shape=hexagon;perimeter=hexagonPerimeter2;whiteSpace=wrap;html=1;fixedSize=1;" parent="1" vertex="1">
          <mxGeometry x="540" y="460" width="90" height="30" as="geometry" />
        </mxCell>
        <mxCell id="u2M_nIq_1dA3qfQZ3DOW-14" style="edgeStyle=orthogonalEdgeStyle;shape=connector;rounded=0;orthogonalLoop=1;jettySize=auto;html=1;exitX=0;exitY=0.5;exitDx=0;exitDy=0;strokeColor=default;align=center;verticalAlign=middle;fontFamily=Helvetica;fontSize=11;fontColor=default;labelBackgroundColor=default;endArrow=none;endFill=0;" parent="1" source="u2M_nIq_1dA3qfQZ3DOW-11" edge="1">
          <mxGeometry relative="1" as="geometry">
            <mxPoint x="470" y="630" as="targetPoint" />
          </mxGeometry>
        </mxCell>
        <mxCell id="u2M_nIq_1dA3qfQZ3DOW-22" value="1-1" style="edgeLabel;html=1;align=center;verticalAlign=middle;resizable=0;points=[];fontFamily=Helvetica;fontSize=11;fontColor=default;labelBackgroundColor=default;" parent="u2M_nIq_1dA3qfQZ3DOW-14" vertex="1" connectable="0">
          <mxGeometry x="-0.4915" y="1" relative="1" as="geometry">
            <mxPoint as="offset" />
          </mxGeometry>
        </mxCell>
        <mxCell id="pvbvdXDTZF8UwQrtEoNj-1" style="edgeStyle=orthogonalEdgeStyle;rounded=0;orthogonalLoop=1;jettySize=auto;html=1;exitX=1;exitY=0.5;exitDx=0;exitDy=0;entryX=0.187;entryY=0.002;entryDx=0;entryDy=0;entryPerimeter=0;endArrow=none;endFill=0;" parent="1" source="u2M_nIq_1dA3qfQZ3DOW-9" target="Lc5PZ5OLvWeDF66VV4uw-15" edge="1">
          <mxGeometry relative="1" as="geometry" />
        </mxCell>
        <mxCell id="pvbvdXDTZF8UwQrtEoNj-2" value="1-n" style="edgeLabel;html=1;align=center;verticalAlign=middle;resizable=0;points=[];" parent="pvbvdXDTZF8UwQrtEoNj-1" vertex="1" connectable="0">
          <mxGeometry x="-0.7385" y="-1" relative="1" as="geometry">
            <mxPoint as="offset" />
          </mxGeometry>
        </mxCell>
        <mxCell id="pvbvdXDTZF8UwQrtEoNj-3" value="Appartien" style="shape=hexagon;perimeter=hexagonPerimeter2;whiteSpace=wrap;html=1;fixedSize=1;" parent="1" vertex="1">
          <mxGeometry x="375" y="430" width="90" height="40" as="geometry" />
        </mxCell>
        <mxCell id="pvbvdXDTZF8UwQrtEoNj-4" style="edgeStyle=orthogonalEdgeStyle;rounded=0;orthogonalLoop=1;jettySize=auto;html=1;exitX=0.5;exitY=0;exitDx=0;exitDy=0;entryX=0.5;entryY=1.127;entryDx=0;entryDy=0;entryPerimeter=0;endArrow=none;endFill=0;" parent="1" source="pvbvdXDTZF8UwQrtEoNj-3" target="Lc5PZ5OLvWeDF66VV4uw-10" edge="1">
          <mxGeometry relative="1" as="geometry" />
        </mxCell>
        <mxCell id="pvbvdXDTZF8UwQrtEoNj-7" value="1-n" style="edgeLabel;html=1;align=center;verticalAlign=middle;resizable=0;points=[];" parent="pvbvdXDTZF8UwQrtEoNj-4" vertex="1" connectable="0">
          <mxGeometry x="0.1607" y="4" relative="1" as="geometry">
            <mxPoint as="offset" />
          </mxGeometry>
        </mxCell>
        <mxCell id="pvbvdXDTZF8UwQrtEoNj-5" style="edgeStyle=orthogonalEdgeStyle;rounded=0;orthogonalLoop=1;jettySize=auto;html=1;exitX=0.5;exitY=1;exitDx=0;exitDy=0;entryX=0.564;entryY=0.011;entryDx=0;entryDy=0;entryPerimeter=0;endArrow=none;endFill=0;" parent="1" source="pvbvdXDTZF8UwQrtEoNj-3" target="Lc5PZ5OLvWeDF66VV4uw-15" edge="1">
          <mxGeometry relative="1" as="geometry" />
        </mxCell>
        <mxCell id="pvbvdXDTZF8UwQrtEoNj-6" value="1-n" style="edgeLabel;html=1;align=center;verticalAlign=middle;resizable=0;points=[];" parent="pvbvdXDTZF8UwQrtEoNj-5" vertex="1" connectable="0">
          <mxGeometry x="-0.3357" relative="1" as="geometry">
            <mxPoint as="offset" />
          </mxGeometry>
        </mxCell>
        <mxCell id="KFx83wsGvj-_HHW0KRqS-5" value="Etudiant" style="shape=table;startSize=30;container=1;collapsible=1;childLayout=tableLayout;fixedRows=1;rowLines=0;fontStyle=1;align=center;resizeLast=1;html=1;fontFamily=Helvetica;fontSize=11;fontColor=default;labelBackgroundColor=default;" vertex="1" parent="1">
          <mxGeometry x="90" y="860" width="180" height="180" as="geometry" />
        </mxCell>
        <mxCell id="KFx83wsGvj-_HHW0KRqS-6" value="" style="shape=tableRow;horizontal=0;startSize=0;swimlaneHead=0;swimlaneBody=0;fillColor=none;collapsible=0;dropTarget=0;points=[[0,0.5],[1,0.5]];portConstraint=eastwest;top=0;left=0;right=0;bottom=1;fontFamily=Helvetica;fontSize=11;fontColor=default;labelBackgroundColor=default;" vertex="1" parent="KFx83wsGvj-_HHW0KRqS-5">
          <mxGeometry y="30" width="180" height="30" as="geometry" />
        </mxCell>
        <mxCell id="KFx83wsGvj-_HHW0KRqS-7" value="PK" style="shape=partialRectangle;connectable=0;fillColor=none;top=0;left=0;bottom=0;right=0;fontStyle=1;overflow=hidden;whiteSpace=wrap;html=1;fontFamily=Helvetica;fontSize=11;fontColor=default;labelBackgroundColor=default;" vertex="1" parent="KFx83wsGvj-_HHW0KRqS-6">
          <mxGeometry width="30" height="30" as="geometry">
            <mxRectangle width="30" height="30" as="alternateBounds" />
          </mxGeometry>
        </mxCell>
        <mxCell id="KFx83wsGvj-_HHW0KRqS-8" value="Matricule" style="shape=partialRectangle;connectable=0;fillColor=none;top=0;left=0;bottom=0;right=0;align=left;spacingLeft=6;fontStyle=5;overflow=hidden;whiteSpace=wrap;html=1;fontFamily=Helvetica;fontSize=11;fontColor=default;labelBackgroundColor=default;" vertex="1" parent="KFx83wsGvj-_HHW0KRqS-6">
          <mxGeometry x="30" width="150" height="30" as="geometry">
            <mxRectangle width="150" height="30" as="alternateBounds" />
          </mxGeometry>
        </mxCell>
        <mxCell id="KFx83wsGvj-_HHW0KRqS-9" value="" style="shape=tableRow;horizontal=0;startSize=0;swimlaneHead=0;swimlaneBody=0;fillColor=none;collapsible=0;dropTarget=0;points=[[0,0.5],[1,0.5]];portConstraint=eastwest;top=0;left=0;right=0;bottom=0;fontFamily=Helvetica;fontSize=11;fontColor=default;labelBackgroundColor=default;" vertex="1" parent="KFx83wsGvj-_HHW0KRqS-5">
          <mxGeometry y="60" width="180" height="30" as="geometry" />
        </mxCell>
        <mxCell id="KFx83wsGvj-_HHW0KRqS-10" value="" style="shape=partialRectangle;connectable=0;fillColor=none;top=0;left=0;bottom=0;right=0;editable=1;overflow=hidden;whiteSpace=wrap;html=1;fontFamily=Helvetica;fontSize=11;fontColor=default;labelBackgroundColor=default;" vertex="1" parent="KFx83wsGvj-_HHW0KRqS-9">
          <mxGeometry width="30" height="30" as="geometry">
            <mxRectangle width="30" height="30" as="alternateBounds" />
          </mxGeometry>
        </mxCell>
        <mxCell id="KFx83wsGvj-_HHW0KRqS-11" value="Nom" style="shape=partialRectangle;connectable=0;fillColor=none;top=0;left=0;bottom=0;right=0;align=left;spacingLeft=6;overflow=hidden;whiteSpace=wrap;html=1;fontFamily=Helvetica;fontSize=11;fontColor=default;labelBackgroundColor=default;" vertex="1" parent="KFx83wsGvj-_HHW0KRqS-9">
          <mxGeometry x="30" width="150" height="30" as="geometry">
            <mxRectangle width="150" height="30" as="alternateBounds" />
          </mxGeometry>
        </mxCell>
        <mxCell id="KFx83wsGvj-_HHW0KRqS-12" value="" style="shape=tableRow;horizontal=0;startSize=0;swimlaneHead=0;swimlaneBody=0;fillColor=none;collapsible=0;dropTarget=0;points=[[0,0.5],[1,0.5]];portConstraint=eastwest;top=0;left=0;right=0;bottom=0;fontFamily=Helvetica;fontSize=11;fontColor=default;labelBackgroundColor=default;" vertex="1" parent="KFx83wsGvj-_HHW0KRqS-5">
          <mxGeometry y="90" width="180" height="30" as="geometry" />
        </mxCell>
        <mxCell id="KFx83wsGvj-_HHW0KRqS-13" value="" style="shape=partialRectangle;connectable=0;fillColor=none;top=0;left=0;bottom=0;right=0;editable=1;overflow=hidden;whiteSpace=wrap;html=1;fontFamily=Helvetica;fontSize=11;fontColor=default;labelBackgroundColor=default;" vertex="1" parent="KFx83wsGvj-_HHW0KRqS-12">
          <mxGeometry width="30" height="30" as="geometry">
            <mxRectangle width="30" height="30" as="alternateBounds" />
          </mxGeometry>
        </mxCell>
        <mxCell id="KFx83wsGvj-_HHW0KRqS-14" value="Prenom" style="shape=partialRectangle;connectable=0;fillColor=none;top=0;left=0;bottom=0;right=0;align=left;spacingLeft=6;overflow=hidden;whiteSpace=wrap;html=1;fontFamily=Helvetica;fontSize=11;fontColor=default;labelBackgroundColor=default;" vertex="1" parent="KFx83wsGvj-_HHW0KRqS-12">
          <mxGeometry x="30" width="150" height="30" as="geometry">
            <mxRectangle width="150" height="30" as="alternateBounds" />
          </mxGeometry>
        </mxCell>
        <mxCell id="KFx83wsGvj-_HHW0KRqS-15" value="" style="shape=tableRow;horizontal=0;startSize=0;swimlaneHead=0;swimlaneBody=0;fillColor=none;collapsible=0;dropTarget=0;points=[[0,0.5],[1,0.5]];portConstraint=eastwest;top=0;left=0;right=0;bottom=0;fontFamily=Helvetica;fontSize=11;fontColor=default;labelBackgroundColor=default;" vertex="1" parent="KFx83wsGvj-_HHW0KRqS-5">
          <mxGeometry y="120" width="180" height="30" as="geometry" />
        </mxCell>
        <mxCell id="KFx83wsGvj-_HHW0KRqS-16" value="" style="shape=partialRectangle;connectable=0;fillColor=none;top=0;left=0;bottom=0;right=0;editable=1;overflow=hidden;whiteSpace=wrap;html=1;fontFamily=Helvetica;fontSize=11;fontColor=default;labelBackgroundColor=default;" vertex="1" parent="KFx83wsGvj-_HHW0KRqS-15">
          <mxGeometry width="30" height="30" as="geometry">
            <mxRectangle width="30" height="30" as="alternateBounds" />
          </mxGeometry>
        </mxCell>
        <mxCell id="KFx83wsGvj-_HHW0KRqS-17" value="Adresse" style="shape=partialRectangle;connectable=0;fillColor=none;top=0;left=0;bottom=0;right=0;align=left;spacingLeft=6;overflow=hidden;whiteSpace=wrap;html=1;fontFamily=Helvetica;fontSize=11;fontColor=default;labelBackgroundColor=default;" vertex="1" parent="KFx83wsGvj-_HHW0KRqS-15">
          <mxGeometry x="30" width="150" height="30" as="geometry">
            <mxRectangle width="150" height="30" as="alternateBounds" />
          </mxGeometry>
        </mxCell>
        <mxCell id="KFx83wsGvj-_HHW0KRqS-86" value="" style="shape=tableRow;horizontal=0;startSize=0;swimlaneHead=0;swimlaneBody=0;fillColor=none;collapsible=0;dropTarget=0;points=[[0,0.5],[1,0.5]];portConstraint=eastwest;top=0;left=0;right=0;bottom=0;fontFamily=Helvetica;fontSize=11;fontColor=default;labelBackgroundColor=default;" vertex="1" parent="KFx83wsGvj-_HHW0KRqS-5">
          <mxGeometry y="150" width="180" height="30" as="geometry" />
        </mxCell>
        <mxCell id="KFx83wsGvj-_HHW0KRqS-87" value="FK" style="shape=partialRectangle;connectable=0;fillColor=none;top=0;left=0;bottom=0;right=0;editable=1;overflow=hidden;whiteSpace=wrap;html=1;fontFamily=Helvetica;fontSize=11;fontColor=default;labelBackgroundColor=default;" vertex="1" parent="KFx83wsGvj-_HHW0KRqS-86">
          <mxGeometry width="30" height="30" as="geometry">
            <mxRectangle width="30" height="30" as="alternateBounds" />
          </mxGeometry>
        </mxCell>
        <mxCell id="KFx83wsGvj-_HHW0KRqS-88" value="IdFiliere" style="shape=partialRectangle;connectable=0;fillColor=none;top=0;left=0;bottom=0;right=0;align=left;spacingLeft=6;overflow=hidden;whiteSpace=wrap;html=1;fontFamily=Helvetica;fontSize=11;fontColor=default;labelBackgroundColor=default;" vertex="1" parent="KFx83wsGvj-_HHW0KRqS-86">
          <mxGeometry x="30" width="150" height="30" as="geometry">
            <mxRectangle width="150" height="30" as="alternateBounds" />
          </mxGeometry>
        </mxCell>
        <mxCell id="KFx83wsGvj-_HHW0KRqS-18" value="ParticipationCours" style="shape=table;startSize=30;container=1;collapsible=1;childLayout=tableLayout;fixedRows=1;rowLines=0;fontStyle=1;align=center;resizeLast=1;html=1;fontFamily=Helvetica;fontSize=11;fontColor=default;labelBackgroundColor=default;" vertex="1" parent="1">
          <mxGeometry x="90" y="1100" width="180" height="90" as="geometry" />
        </mxCell>
        <mxCell id="KFx83wsGvj-_HHW0KRqS-22" value="" style="shape=tableRow;horizontal=0;startSize=0;swimlaneHead=0;swimlaneBody=0;fillColor=none;collapsible=0;dropTarget=0;points=[[0,0.5],[1,0.5]];portConstraint=eastwest;top=0;left=0;right=0;bottom=0;fontFamily=Helvetica;fontSize=11;fontColor=default;labelBackgroundColor=default;" vertex="1" parent="KFx83wsGvj-_HHW0KRqS-18">
          <mxGeometry y="30" width="180" height="30" as="geometry" />
        </mxCell>
        <mxCell id="KFx83wsGvj-_HHW0KRqS-23" value="PK,FK" style="shape=partialRectangle;connectable=0;fillColor=none;top=0;left=0;bottom=0;right=0;editable=1;overflow=hidden;whiteSpace=wrap;html=1;fontFamily=Helvetica;fontSize=11;fontColor=default;labelBackgroundColor=default;" vertex="1" parent="KFx83wsGvj-_HHW0KRqS-22">
          <mxGeometry width="30" height="30" as="geometry">
            <mxRectangle width="30" height="30" as="alternateBounds" />
          </mxGeometry>
        </mxCell>
        <mxCell id="KFx83wsGvj-_HHW0KRqS-24" value="IdEtudiant" style="shape=partialRectangle;connectable=0;fillColor=none;top=0;left=0;bottom=0;right=0;align=left;spacingLeft=6;overflow=hidden;whiteSpace=wrap;html=1;fontFamily=Helvetica;fontSize=11;fontColor=default;labelBackgroundColor=default;" vertex="1" parent="KFx83wsGvj-_HHW0KRqS-22">
          <mxGeometry x="30" width="150" height="30" as="geometry">
            <mxRectangle width="150" height="30" as="alternateBounds" />
          </mxGeometry>
        </mxCell>
        <mxCell id="KFx83wsGvj-_HHW0KRqS-25" value="" style="shape=tableRow;horizontal=0;startSize=0;swimlaneHead=0;swimlaneBody=0;fillColor=none;collapsible=0;dropTarget=0;points=[[0,0.5],[1,0.5]];portConstraint=eastwest;top=0;left=0;right=0;bottom=0;fontFamily=Helvetica;fontSize=11;fontColor=default;labelBackgroundColor=default;" vertex="1" parent="KFx83wsGvj-_HHW0KRqS-18">
          <mxGeometry y="60" width="180" height="30" as="geometry" />
        </mxCell>
        <mxCell id="KFx83wsGvj-_HHW0KRqS-26" value="PK,FK" style="shape=partialRectangle;connectable=0;fillColor=none;top=0;left=0;bottom=0;right=0;editable=1;overflow=hidden;whiteSpace=wrap;html=1;fontFamily=Helvetica;fontSize=11;fontColor=default;labelBackgroundColor=default;" vertex="1" parent="KFx83wsGvj-_HHW0KRqS-25">
          <mxGeometry width="30" height="30" as="geometry">
            <mxRectangle width="30" height="30" as="alternateBounds" />
          </mxGeometry>
        </mxCell>
        <mxCell id="KFx83wsGvj-_HHW0KRqS-27" value="IdCours" style="shape=partialRectangle;connectable=0;fillColor=none;top=0;left=0;bottom=0;right=0;align=left;spacingLeft=6;overflow=hidden;whiteSpace=wrap;html=1;fontFamily=Helvetica;fontSize=11;fontColor=default;labelBackgroundColor=default;" vertex="1" parent="KFx83wsGvj-_HHW0KRqS-25">
          <mxGeometry x="30" width="150" height="30" as="geometry">
            <mxRectangle width="150" height="30" as="alternateBounds" />
          </mxGeometry>
        </mxCell>
        <mxCell id="KFx83wsGvj-_HHW0KRqS-31" value="Cours" style="shape=table;startSize=30;container=1;collapsible=1;childLayout=tableLayout;fixedRows=1;rowLines=0;fontStyle=1;align=center;resizeLast=1;html=1;fontFamily=Helvetica;fontSize=11;fontColor=default;labelBackgroundColor=default;" vertex="1" parent="1">
          <mxGeometry x="90" y="1240" width="180" height="150" as="geometry" />
        </mxCell>
        <mxCell id="KFx83wsGvj-_HHW0KRqS-32" value="" style="shape=tableRow;horizontal=0;startSize=0;swimlaneHead=0;swimlaneBody=0;fillColor=none;collapsible=0;dropTarget=0;points=[[0,0.5],[1,0.5]];portConstraint=eastwest;top=0;left=0;right=0;bottom=1;fontFamily=Helvetica;fontSize=11;fontColor=default;labelBackgroundColor=default;" vertex="1" parent="KFx83wsGvj-_HHW0KRqS-31">
          <mxGeometry y="30" width="180" height="30" as="geometry" />
        </mxCell>
        <mxCell id="KFx83wsGvj-_HHW0KRqS-33" value="PK" style="shape=partialRectangle;connectable=0;fillColor=none;top=0;left=0;bottom=0;right=0;fontStyle=1;overflow=hidden;whiteSpace=wrap;html=1;fontFamily=Helvetica;fontSize=11;fontColor=default;labelBackgroundColor=default;" vertex="1" parent="KFx83wsGvj-_HHW0KRqS-32">
          <mxGeometry width="30" height="30" as="geometry">
            <mxRectangle width="30" height="30" as="alternateBounds" />
          </mxGeometry>
        </mxCell>
        <mxCell id="KFx83wsGvj-_HHW0KRqS-34" value="Mnemonique" style="shape=partialRectangle;connectable=0;fillColor=none;top=0;left=0;bottom=0;right=0;align=left;spacingLeft=6;fontStyle=5;overflow=hidden;whiteSpace=wrap;html=1;fontFamily=Helvetica;fontSize=11;fontColor=default;labelBackgroundColor=default;" vertex="1" parent="KFx83wsGvj-_HHW0KRqS-32">
          <mxGeometry x="30" width="150" height="30" as="geometry">
            <mxRectangle width="150" height="30" as="alternateBounds" />
          </mxGeometry>
        </mxCell>
        <mxCell id="KFx83wsGvj-_HHW0KRqS-35" value="" style="shape=tableRow;horizontal=0;startSize=0;swimlaneHead=0;swimlaneBody=0;fillColor=none;collapsible=0;dropTarget=0;points=[[0,0.5],[1,0.5]];portConstraint=eastwest;top=0;left=0;right=0;bottom=0;fontFamily=Helvetica;fontSize=11;fontColor=default;labelBackgroundColor=default;" vertex="1" parent="KFx83wsGvj-_HHW0KRqS-31">
          <mxGeometry y="60" width="180" height="30" as="geometry" />
        </mxCell>
        <mxCell id="KFx83wsGvj-_HHW0KRqS-36" value="" style="shape=partialRectangle;connectable=0;fillColor=none;top=0;left=0;bottom=0;right=0;editable=1;overflow=hidden;whiteSpace=wrap;html=1;fontFamily=Helvetica;fontSize=11;fontColor=default;labelBackgroundColor=default;" vertex="1" parent="KFx83wsGvj-_HHW0KRqS-35">
          <mxGeometry width="30" height="30" as="geometry">
            <mxRectangle width="30" height="30" as="alternateBounds" />
          </mxGeometry>
        </mxCell>
        <mxCell id="KFx83wsGvj-_HHW0KRqS-37" value="Intitule" style="shape=partialRectangle;connectable=0;fillColor=none;top=0;left=0;bottom=0;right=0;align=left;spacingLeft=6;overflow=hidden;whiteSpace=wrap;html=1;fontFamily=Helvetica;fontSize=11;fontColor=default;labelBackgroundColor=default;" vertex="1" parent="KFx83wsGvj-_HHW0KRqS-35">
          <mxGeometry x="30" width="150" height="30" as="geometry">
            <mxRectangle width="150" height="30" as="alternateBounds" />
          </mxGeometry>
        </mxCell>
        <mxCell id="KFx83wsGvj-_HHW0KRqS-38" value="" style="shape=tableRow;horizontal=0;startSize=0;swimlaneHead=0;swimlaneBody=0;fillColor=none;collapsible=0;dropTarget=0;points=[[0,0.5],[1,0.5]];portConstraint=eastwest;top=0;left=0;right=0;bottom=0;fontFamily=Helvetica;fontSize=11;fontColor=default;labelBackgroundColor=default;" vertex="1" parent="KFx83wsGvj-_HHW0KRqS-31">
          <mxGeometry y="90" width="180" height="30" as="geometry" />
        </mxCell>
        <mxCell id="KFx83wsGvj-_HHW0KRqS-39" value="" style="shape=partialRectangle;connectable=0;fillColor=none;top=0;left=0;bottom=0;right=0;editable=1;overflow=hidden;whiteSpace=wrap;html=1;fontFamily=Helvetica;fontSize=11;fontColor=default;labelBackgroundColor=default;" vertex="1" parent="KFx83wsGvj-_HHW0KRqS-38">
          <mxGeometry width="30" height="30" as="geometry">
            <mxRectangle width="30" height="30" as="alternateBounds" />
          </mxGeometry>
        </mxCell>
        <mxCell id="KFx83wsGvj-_HHW0KRqS-40" value="Resume" style="shape=partialRectangle;connectable=0;fillColor=none;top=0;left=0;bottom=0;right=0;align=left;spacingLeft=6;overflow=hidden;whiteSpace=wrap;html=1;fontFamily=Helvetica;fontSize=11;fontColor=default;labelBackgroundColor=default;" vertex="1" parent="KFx83wsGvj-_HHW0KRqS-38">
          <mxGeometry x="30" width="150" height="30" as="geometry">
            <mxRectangle width="150" height="30" as="alternateBounds" />
          </mxGeometry>
        </mxCell>
        <mxCell id="KFx83wsGvj-_HHW0KRqS-83" value="" style="shape=tableRow;horizontal=0;startSize=0;swimlaneHead=0;swimlaneBody=0;fillColor=none;collapsible=0;dropTarget=0;points=[[0,0.5],[1,0.5]];portConstraint=eastwest;top=0;left=0;right=0;bottom=0;fontFamily=Helvetica;fontSize=11;fontColor=default;labelBackgroundColor=default;" vertex="1" parent="KFx83wsGvj-_HHW0KRqS-31">
          <mxGeometry y="120" width="180" height="30" as="geometry" />
        </mxCell>
        <mxCell id="KFx83wsGvj-_HHW0KRqS-84" value="FK" style="shape=partialRectangle;connectable=0;fillColor=none;top=0;left=0;bottom=0;right=0;editable=1;overflow=hidden;whiteSpace=wrap;html=1;fontFamily=Helvetica;fontSize=11;fontColor=default;labelBackgroundColor=default;" vertex="1" parent="KFx83wsGvj-_HHW0KRqS-83">
          <mxGeometry width="30" height="30" as="geometry">
            <mxRectangle width="30" height="30" as="alternateBounds" />
          </mxGeometry>
        </mxCell>
        <mxCell id="KFx83wsGvj-_HHW0KRqS-85" value="IdProfesseur" style="shape=partialRectangle;connectable=0;fillColor=none;top=0;left=0;bottom=0;right=0;align=left;spacingLeft=6;overflow=hidden;whiteSpace=wrap;html=1;fontFamily=Helvetica;fontSize=11;fontColor=default;labelBackgroundColor=default;" vertex="1" parent="KFx83wsGvj-_HHW0KRqS-83">
          <mxGeometry x="30" width="150" height="30" as="geometry">
            <mxRectangle width="150" height="30" as="alternateBounds" />
          </mxGeometry>
        </mxCell>
        <mxCell id="KFx83wsGvj-_HHW0KRqS-44" value="Professeur" style="shape=table;startSize=30;container=1;collapsible=1;childLayout=tableLayout;fixedRows=1;rowLines=0;fontStyle=1;align=center;resizeLast=1;html=1;fontFamily=Helvetica;fontSize=11;fontColor=default;labelBackgroundColor=default;" vertex="1" parent="1">
          <mxGeometry x="380" y="1100" width="180" height="180" as="geometry" />
        </mxCell>
        <mxCell id="KFx83wsGvj-_HHW0KRqS-45" value="" style="shape=tableRow;horizontal=0;startSize=0;swimlaneHead=0;swimlaneBody=0;fillColor=none;collapsible=0;dropTarget=0;points=[[0,0.5],[1,0.5]];portConstraint=eastwest;top=0;left=0;right=0;bottom=1;fontFamily=Helvetica;fontSize=11;fontColor=default;labelBackgroundColor=default;" vertex="1" parent="KFx83wsGvj-_HHW0KRqS-44">
          <mxGeometry y="30" width="180" height="30" as="geometry" />
        </mxCell>
        <mxCell id="KFx83wsGvj-_HHW0KRqS-46" value="PK" style="shape=partialRectangle;connectable=0;fillColor=none;top=0;left=0;bottom=0;right=0;fontStyle=1;overflow=hidden;whiteSpace=wrap;html=1;fontFamily=Helvetica;fontSize=11;fontColor=default;labelBackgroundColor=default;" vertex="1" parent="KFx83wsGvj-_HHW0KRqS-45">
          <mxGeometry width="30" height="30" as="geometry">
            <mxRectangle width="30" height="30" as="alternateBounds" />
          </mxGeometry>
        </mxCell>
        <mxCell id="KFx83wsGvj-_HHW0KRqS-47" value="Matricule" style="shape=partialRectangle;connectable=0;fillColor=none;top=0;left=0;bottom=0;right=0;align=left;spacingLeft=6;fontStyle=5;overflow=hidden;whiteSpace=wrap;html=1;fontFamily=Helvetica;fontSize=11;fontColor=default;labelBackgroundColor=default;" vertex="1" parent="KFx83wsGvj-_HHW0KRqS-45">
          <mxGeometry x="30" width="150" height="30" as="geometry">
            <mxRectangle width="150" height="30" as="alternateBounds" />
          </mxGeometry>
        </mxCell>
        <mxCell id="KFx83wsGvj-_HHW0KRqS-48" value="" style="shape=tableRow;horizontal=0;startSize=0;swimlaneHead=0;swimlaneBody=0;fillColor=none;collapsible=0;dropTarget=0;points=[[0,0.5],[1,0.5]];portConstraint=eastwest;top=0;left=0;right=0;bottom=0;fontFamily=Helvetica;fontSize=11;fontColor=default;labelBackgroundColor=default;" vertex="1" parent="KFx83wsGvj-_HHW0KRqS-44">
          <mxGeometry y="60" width="180" height="30" as="geometry" />
        </mxCell>
        <mxCell id="KFx83wsGvj-_HHW0KRqS-49" value="" style="shape=partialRectangle;connectable=0;fillColor=none;top=0;left=0;bottom=0;right=0;editable=1;overflow=hidden;whiteSpace=wrap;html=1;fontFamily=Helvetica;fontSize=11;fontColor=default;labelBackgroundColor=default;" vertex="1" parent="KFx83wsGvj-_HHW0KRqS-48">
          <mxGeometry width="30" height="30" as="geometry">
            <mxRectangle width="30" height="30" as="alternateBounds" />
          </mxGeometry>
        </mxCell>
        <mxCell id="KFx83wsGvj-_HHW0KRqS-50" value="Titre" style="shape=partialRectangle;connectable=0;fillColor=none;top=0;left=0;bottom=0;right=0;align=left;spacingLeft=6;overflow=hidden;whiteSpace=wrap;html=1;fontFamily=Helvetica;fontSize=11;fontColor=default;labelBackgroundColor=default;" vertex="1" parent="KFx83wsGvj-_HHW0KRqS-48">
          <mxGeometry x="30" width="150" height="30" as="geometry">
            <mxRectangle width="150" height="30" as="alternateBounds" />
          </mxGeometry>
        </mxCell>
        <mxCell id="KFx83wsGvj-_HHW0KRqS-51" value="" style="shape=tableRow;horizontal=0;startSize=0;swimlaneHead=0;swimlaneBody=0;fillColor=none;collapsible=0;dropTarget=0;points=[[0,0.5],[1,0.5]];portConstraint=eastwest;top=0;left=0;right=0;bottom=0;fontFamily=Helvetica;fontSize=11;fontColor=default;labelBackgroundColor=default;" vertex="1" parent="KFx83wsGvj-_HHW0KRqS-44">
          <mxGeometry y="90" width="180" height="30" as="geometry" />
        </mxCell>
        <mxCell id="KFx83wsGvj-_HHW0KRqS-52" value="" style="shape=partialRectangle;connectable=0;fillColor=none;top=0;left=0;bottom=0;right=0;editable=1;overflow=hidden;whiteSpace=wrap;html=1;fontFamily=Helvetica;fontSize=11;fontColor=default;labelBackgroundColor=default;" vertex="1" parent="KFx83wsGvj-_HHW0KRqS-51">
          <mxGeometry width="30" height="30" as="geometry">
            <mxRectangle width="30" height="30" as="alternateBounds" />
          </mxGeometry>
        </mxCell>
        <mxCell id="KFx83wsGvj-_HHW0KRqS-53" value="Nom" style="shape=partialRectangle;connectable=0;fillColor=none;top=0;left=0;bottom=0;right=0;align=left;spacingLeft=6;overflow=hidden;whiteSpace=wrap;html=1;fontFamily=Helvetica;fontSize=11;fontColor=default;labelBackgroundColor=default;" vertex="1" parent="KFx83wsGvj-_HHW0KRqS-51">
          <mxGeometry x="30" width="150" height="30" as="geometry">
            <mxRectangle width="150" height="30" as="alternateBounds" />
          </mxGeometry>
        </mxCell>
        <mxCell id="KFx83wsGvj-_HHW0KRqS-54" value="" style="shape=tableRow;horizontal=0;startSize=0;swimlaneHead=0;swimlaneBody=0;fillColor=none;collapsible=0;dropTarget=0;points=[[0,0.5],[1,0.5]];portConstraint=eastwest;top=0;left=0;right=0;bottom=0;fontFamily=Helvetica;fontSize=11;fontColor=default;labelBackgroundColor=default;" vertex="1" parent="KFx83wsGvj-_HHW0KRqS-44">
          <mxGeometry y="120" width="180" height="30" as="geometry" />
        </mxCell>
        <mxCell id="KFx83wsGvj-_HHW0KRqS-55" value="" style="shape=partialRectangle;connectable=0;fillColor=none;top=0;left=0;bottom=0;right=0;editable=1;overflow=hidden;whiteSpace=wrap;html=1;fontFamily=Helvetica;fontSize=11;fontColor=default;labelBackgroundColor=default;" vertex="1" parent="KFx83wsGvj-_HHW0KRqS-54">
          <mxGeometry width="30" height="30" as="geometry">
            <mxRectangle width="30" height="30" as="alternateBounds" />
          </mxGeometry>
        </mxCell>
        <mxCell id="KFx83wsGvj-_HHW0KRqS-56" value="Prenom" style="shape=partialRectangle;connectable=0;fillColor=none;top=0;left=0;bottom=0;right=0;align=left;spacingLeft=6;overflow=hidden;whiteSpace=wrap;html=1;fontFamily=Helvetica;fontSize=11;fontColor=default;labelBackgroundColor=default;" vertex="1" parent="KFx83wsGvj-_HHW0KRqS-54">
          <mxGeometry x="30" width="150" height="30" as="geometry">
            <mxRectangle width="150" height="30" as="alternateBounds" />
          </mxGeometry>
        </mxCell>
        <mxCell id="KFx83wsGvj-_HHW0KRqS-57" value="" style="shape=tableRow;horizontal=0;startSize=0;swimlaneHead=0;swimlaneBody=0;fillColor=none;collapsible=0;dropTarget=0;points=[[0,0.5],[1,0.5]];portConstraint=eastwest;top=0;left=0;right=0;bottom=0;fontFamily=Helvetica;fontSize=11;fontColor=default;labelBackgroundColor=default;" vertex="1" parent="KFx83wsGvj-_HHW0KRqS-44">
          <mxGeometry y="150" width="180" height="30" as="geometry" />
        </mxCell>
        <mxCell id="KFx83wsGvj-_HHW0KRqS-58" value="" style="shape=partialRectangle;connectable=0;fillColor=none;top=0;left=0;bottom=0;right=0;editable=1;overflow=hidden;whiteSpace=wrap;html=1;fontFamily=Helvetica;fontSize=11;fontColor=default;labelBackgroundColor=default;" vertex="1" parent="KFx83wsGvj-_HHW0KRqS-57">
          <mxGeometry width="30" height="30" as="geometry">
            <mxRectangle width="30" height="30" as="alternateBounds" />
          </mxGeometry>
        </mxCell>
        <mxCell id="KFx83wsGvj-_HHW0KRqS-59" value="Adresse" style="shape=partialRectangle;connectable=0;fillColor=none;top=0;left=0;bottom=0;right=0;align=left;spacingLeft=6;overflow=hidden;whiteSpace=wrap;html=1;fontFamily=Helvetica;fontSize=11;fontColor=default;labelBackgroundColor=default;" vertex="1" parent="KFx83wsGvj-_HHW0KRqS-57">
          <mxGeometry x="30" width="150" height="30" as="geometry">
            <mxRectangle width="150" height="30" as="alternateBounds" />
          </mxGeometry>
        </mxCell>
        <mxCell id="KFx83wsGvj-_HHW0KRqS-89" value="Filiere" style="shape=table;startSize=30;container=1;collapsible=1;childLayout=tableLayout;fixedRows=1;rowLines=0;fontStyle=1;align=center;resizeLast=1;html=1;fontFamily=Helvetica;fontSize=11;fontColor=default;labelBackgroundColor=default;" vertex="1" parent="1">
          <mxGeometry x="375" y="890" width="180" height="120" as="geometry" />
        </mxCell>
        <mxCell id="KFx83wsGvj-_HHW0KRqS-90" value="" style="shape=tableRow;horizontal=0;startSize=0;swimlaneHead=0;swimlaneBody=0;fillColor=none;collapsible=0;dropTarget=0;points=[[0,0.5],[1,0.5]];portConstraint=eastwest;top=0;left=0;right=0;bottom=1;fontFamily=Helvetica;fontSize=11;fontColor=default;labelBackgroundColor=default;" vertex="1" parent="KFx83wsGvj-_HHW0KRqS-89">
          <mxGeometry y="30" width="180" height="30" as="geometry" />
        </mxCell>
        <mxCell id="KFx83wsGvj-_HHW0KRqS-91" value="PK" style="shape=partialRectangle;connectable=0;fillColor=none;top=0;left=0;bottom=0;right=0;fontStyle=1;overflow=hidden;whiteSpace=wrap;html=1;fontFamily=Helvetica;fontSize=11;fontColor=default;labelBackgroundColor=default;" vertex="1" parent="KFx83wsGvj-_HHW0KRqS-90">
          <mxGeometry width="30" height="30" as="geometry">
            <mxRectangle width="30" height="30" as="alternateBounds" />
          </mxGeometry>
        </mxCell>
        <mxCell id="KFx83wsGvj-_HHW0KRqS-92" value="Code" style="shape=partialRectangle;connectable=0;fillColor=none;top=0;left=0;bottom=0;right=0;align=left;spacingLeft=6;fontStyle=5;overflow=hidden;whiteSpace=wrap;html=1;fontFamily=Helvetica;fontSize=11;fontColor=default;labelBackgroundColor=default;" vertex="1" parent="KFx83wsGvj-_HHW0KRqS-90">
          <mxGeometry x="30" width="150" height="30" as="geometry">
            <mxRectangle width="150" height="30" as="alternateBounds" />
          </mxGeometry>
        </mxCell>
        <mxCell id="KFx83wsGvj-_HHW0KRqS-93" value="" style="shape=tableRow;horizontal=0;startSize=0;swimlaneHead=0;swimlaneBody=0;fillColor=none;collapsible=0;dropTarget=0;points=[[0,0.5],[1,0.5]];portConstraint=eastwest;top=0;left=0;right=0;bottom=0;fontFamily=Helvetica;fontSize=11;fontColor=default;labelBackgroundColor=default;" vertex="1" parent="KFx83wsGvj-_HHW0KRqS-89">
          <mxGeometry y="60" width="180" height="30" as="geometry" />
        </mxCell>
        <mxCell id="KFx83wsGvj-_HHW0KRqS-94" value="" style="shape=partialRectangle;connectable=0;fillColor=none;top=0;left=0;bottom=0;right=0;editable=1;overflow=hidden;whiteSpace=wrap;html=1;fontFamily=Helvetica;fontSize=11;fontColor=default;labelBackgroundColor=default;" vertex="1" parent="KFx83wsGvj-_HHW0KRqS-93">
          <mxGeometry width="30" height="30" as="geometry">
            <mxRectangle width="30" height="30" as="alternateBounds" />
          </mxGeometry>
        </mxCell>
        <mxCell id="KFx83wsGvj-_HHW0KRqS-95" value="Nom" style="shape=partialRectangle;connectable=0;fillColor=none;top=0;left=0;bottom=0;right=0;align=left;spacingLeft=6;overflow=hidden;whiteSpace=wrap;html=1;fontFamily=Helvetica;fontSize=11;fontColor=default;labelBackgroundColor=default;" vertex="1" parent="KFx83wsGvj-_HHW0KRqS-93">
          <mxGeometry x="30" width="150" height="30" as="geometry">
            <mxRectangle width="150" height="30" as="alternateBounds" />
          </mxGeometry>
        </mxCell>
        <mxCell id="KFx83wsGvj-_HHW0KRqS-102" value="" style="shape=tableRow;horizontal=0;startSize=0;swimlaneHead=0;swimlaneBody=0;fillColor=none;collapsible=0;dropTarget=0;points=[[0,0.5],[1,0.5]];portConstraint=eastwest;top=0;left=0;right=0;bottom=0;fontFamily=Helvetica;fontSize=11;fontColor=default;labelBackgroundColor=default;" vertex="1" parent="KFx83wsGvj-_HHW0KRqS-89">
          <mxGeometry y="90" width="180" height="30" as="geometry" />
        </mxCell>
        <mxCell id="KFx83wsGvj-_HHW0KRqS-103" value="FK" style="shape=partialRectangle;connectable=0;fillColor=none;top=0;left=0;bottom=0;right=0;editable=1;overflow=hidden;whiteSpace=wrap;html=1;fontFamily=Helvetica;fontSize=11;fontColor=default;labelBackgroundColor=default;" vertex="1" parent="KFx83wsGvj-_HHW0KRqS-102">
          <mxGeometry width="30" height="30" as="geometry">
            <mxRectangle width="30" height="30" as="alternateBounds" />
          </mxGeometry>
        </mxCell>
        <mxCell id="KFx83wsGvj-_HHW0KRqS-104" value="IdProfesseur" style="shape=partialRectangle;connectable=0;fillColor=none;top=0;left=0;bottom=0;right=0;align=left;spacingLeft=6;overflow=hidden;whiteSpace=wrap;html=1;fontFamily=Helvetica;fontSize=11;fontColor=default;labelBackgroundColor=default;" vertex="1" parent="KFx83wsGvj-_HHW0KRqS-102">
          <mxGeometry x="30" width="150" height="30" as="geometry">
            <mxRectangle width="150" height="30" as="alternateBounds" />
          </mxGeometry>
        </mxCell>
        <mxCell id="KFx83wsGvj-_HHW0KRqS-113" style="edgeStyle=orthogonalEdgeStyle;shape=connector;rounded=0;orthogonalLoop=1;jettySize=auto;html=1;exitX=0;exitY=0.5;exitDx=0;exitDy=0;entryX=0;entryY=0.5;entryDx=0;entryDy=0;strokeColor=default;align=center;verticalAlign=middle;fontFamily=Helvetica;fontSize=11;fontColor=default;labelBackgroundColor=default;endArrow=classic;endFill=1;" edge="1" parent="1" source="KFx83wsGvj-_HHW0KRqS-25" target="KFx83wsGvj-_HHW0KRqS-32">
          <mxGeometry relative="1" as="geometry" />
        </mxCell>
        <mxCell id="KFx83wsGvj-_HHW0KRqS-114" style="edgeStyle=orthogonalEdgeStyle;shape=connector;rounded=0;orthogonalLoop=1;jettySize=auto;html=1;exitX=0;exitY=0.5;exitDx=0;exitDy=0;entryX=0;entryY=0.5;entryDx=0;entryDy=0;strokeColor=default;align=center;verticalAlign=middle;fontFamily=Helvetica;fontSize=11;fontColor=default;labelBackgroundColor=default;endArrow=classic;endFill=1;" edge="1" parent="1" source="KFx83wsGvj-_HHW0KRqS-22" target="KFx83wsGvj-_HHW0KRqS-6">
          <mxGeometry relative="1" as="geometry" />
        </mxCell>
        <mxCell id="KFx83wsGvj-_HHW0KRqS-115" style="edgeStyle=orthogonalEdgeStyle;shape=connector;rounded=0;orthogonalLoop=1;jettySize=auto;html=1;exitX=1;exitY=0.5;exitDx=0;exitDy=0;entryX=0;entryY=0.5;entryDx=0;entryDy=0;strokeColor=default;align=center;verticalAlign=middle;fontFamily=Helvetica;fontSize=11;fontColor=default;labelBackgroundColor=default;endArrow=classic;endFill=1;" edge="1" parent="1" source="KFx83wsGvj-_HHW0KRqS-83" target="KFx83wsGvj-_HHW0KRqS-45">
          <mxGeometry relative="1" as="geometry" />
        </mxCell>
        <mxCell id="KFx83wsGvj-_HHW0KRqS-116" style="edgeStyle=orthogonalEdgeStyle;shape=connector;rounded=0;orthogonalLoop=1;jettySize=auto;html=1;exitX=1;exitY=0.5;exitDx=0;exitDy=0;entryX=1;entryY=0.5;entryDx=0;entryDy=0;strokeColor=default;align=center;verticalAlign=middle;fontFamily=Helvetica;fontSize=11;fontColor=default;labelBackgroundColor=default;endArrow=classic;endFill=1;" edge="1" parent="1" source="KFx83wsGvj-_HHW0KRqS-102" target="KFx83wsGvj-_HHW0KRqS-45">
          <mxGeometry relative="1" as="geometry" />
        </mxCell>
      </root>
    </mxGraphModel>
  </diagram>
</mxfile>
